<svg width="59" height="50" viewBox="0 0 59 50" fill="none" xmlns="http://www.w3.org/2000/svg">
<path fill-rule="evenodd" clip-rule="evenodd" d="M29.5931 9.77548C29.9807 9.43177 30.2192 8.94339 30.3265 8.44244C30.621 7.07788 30.1123 5.38266 29.2559 4.68793C28.6077 4.17129 27.4897 3.85543 26.6838 3.74326C25.7705 3.61583 24.7184 3.56557 23.8179 3.73248C21.8535 4.09814 19.8789 4.66535 18.0354 5.45729C16.9428 5.92687 15.9587 6.53728 14.9605 7.18683C13.1164 8.38898 11.0812 10.0259 9.4694 11.8008C7.53004 13.9383 6.11037 16.5804 5.55225 19.113C5.29994 20.2608 5.27716 21.4585 5.53688 22.606C5.81224 23.8252 6.43941 24.8952 7.36127 25.5277C8.64551 26.4102 10.1943 26.8264 11.585 27.523C12.9674 28.2131 15.5995 29.294 16.3942 30.1478C17.5066 31.3249 17.8402 33.976 17.3304 36.2783C17.2586 36.6046 17.17 36.924 17.0665 37.2308C15.8613 40.7747 11.5272 44.4686 6.9276 43.4505C6.1374 43.2754 4.5677 42.8955 4.18207 42.0708C3.84789 41.3586 4.02974 40.4117 3.05665 40.2033C2.9994 40.1907 2.93961 40.1813 2.87693 40.1745L2.85135 40.1712L2.82753 40.1808C2.2065 40.4416 1.88996 40.9324 1.77534 41.46C1.58953 42.3221 1.89802 43.2835 2.21662 43.7179C2.9031 44.6315 4.72504 45.4034 6.34477 45.7636C6.69242 45.8409 7.04424 45.8981 7.39849 45.9349C11.3431 46.3184 16.7559 43.4256 18.3246 38.7594C18.445 38.4006 18.5467 38.0283 18.6311 37.6467C19.3322 34.4363 18.7879 30.5491 16.995 28.7085C14.9648 26.658 12.3635 26.5141 9.88589 25.2977C7.67518 24.2111 6.60821 22.2919 6.83047 19.9032C6.84979 19.6893 7.15517 18.7937 7.22463 18.568C8.88402 13.1028 14.0332 8.9099 17.684 7.05582C18.3253 6.72795 20.6197 5.64474 21.4233 5.43982C23.3461 4.95036 24.8136 4.63376 26.7946 4.89424C27.3796 4.97177 28.1756 5.22335 28.6685 5.56009C29.4238 6.07661 29.4857 6.84733 29.4091 7.70367C29.3502 8.3666 29.0675 8.80208 28.7149 9.32433C28.6152 9.47138 28.2213 9.96319 28.3267 10.1516C28.5424 10.5356 29.4228 9.9265 29.5931 9.77548Z" fill="black"/>
<path fill-rule="evenodd" clip-rule="evenodd" d="M55.0377 33.5834C54.8996 33.6623 54.7778 33.7319 54.6786 33.7626C54.4955 33.8194 54.325 33.8919 54.1564 33.9636L54.1564 33.9636C53.894 34.0751 53.6361 34.1848 53.3419 34.2308C53.125 34.2647 52.9187 34.3022 52.7188 34.3386L52.7188 34.3386L52.7188 34.3386C52.0923 34.4525 51.5295 34.5548 50.9016 34.4994C50.7544 34.4865 50.1077 34.347 50.0711 34.3389C49.1676 34.1403 48.9377 33.5235 48.7304 32.9672C48.7151 32.9261 48.6999 32.8853 48.6846 32.8451C48.4063 32.1157 48.4872 31.4911 48.6456 30.7706C48.6753 30.6353 48.7031 30.4962 48.7313 30.3554L48.7313 30.3554L48.7313 30.3554C48.8569 29.728 48.9896 29.065 49.3254 28.5345C49.7336 27.8902 50.4933 27.9012 51.1918 27.9114C51.3336 27.9135 51.4729 27.9155 51.6062 27.912C52.1846 27.8976 52.7558 27.8375 53.3301 27.777L53.4352 27.766C53.5377 27.7548 53.6474 27.7437 53.7624 27.732C55.0056 27.606 56.8556 27.4185 56.6635 26.4705L56.365 26.336L55.9655 26.4131C55.3345 26.4976 54.7113 26.5963 54.097 26.6936C52.7564 26.9059 51.4583 27.1114 50.2151 27.1486C50.2817 27.1466 50.5203 26.6228 50.6606 26.3149L50.6606 26.3148L50.6607 26.3147L50.6607 26.3146C50.7067 26.2137 50.7421 26.136 50.7574 26.1075C50.9455 25.7579 51.1372 25.4106 51.332 25.0639C51.7436 24.3251 52.2038 23.6146 52.7094 22.9371C52.7336 22.9047 52.7678 22.8619 52.8084 22.8108C53.1233 22.4154 53.8304 21.5276 53.3984 21.2067C52.9478 21.0329 52.5021 21.285 52.1587 21.5898C51.7334 21.9675 51.4109 22.3567 51.058 22.8048C50.3633 23.6866 49.8604 24.5718 49.3673 25.581C49.2935 25.7323 49.2139 25.8918 49.1334 26.0532L49.1334 26.0533L49.1333 26.0534C49.0101 26.3004 48.8847 26.5518 48.7747 26.7845C48.551 27.2588 48.1133 27.3448 47.6041 27.3128C47.5092 27.3067 47.403 27.2878 47.2936 27.2682C47.0807 27.2301 46.8554 27.1898 46.6766 27.2388C46.3681 27.323 46.36 27.8293 46.6503 27.9696C46.8072 28.0456 46.9743 28.0609 47.1409 28.076C47.2994 28.0905 47.4575 28.1049 47.6061 28.1717C47.9702 28.3356 47.8364 28.5356 47.6757 28.7759L47.6756 28.7761L47.6755 28.7761C47.655 28.8068 47.634 28.8382 47.6136 28.8702C47.4989 29.0492 47.3791 29.2246 47.2592 29.3999C47.114 29.6123 46.9688 29.8247 46.8328 30.0437C46.7066 30.248 46.5879 30.4569 46.4693 30.6658C46.3545 30.8679 46.2398 31.0699 46.1182 31.2678C45.8451 31.7094 45.5461 32.1343 45.2227 32.5401C45.0624 32.7479 44.8942 32.9469 44.7243 33.1466L44.7015 33.1735L44.7015 33.1735C44.464 33.4534 44.2268 33.733 43.9753 34.0006C43.6896 34.3083 43.3978 34.6103 43.1 34.9063L43.0368 34.9685C42.8298 35.1722 42.6196 35.3793 42.3678 35.5257C42.221 35.6109 42.0403 35.6698 41.869 35.6715C41.5349 35.6739 41.1038 35.5998 40.9176 35.2861C40.8183 35.1199 40.7606 34.9319 40.7496 34.7382C40.7405 34.608 40.7382 34.4775 40.7425 34.3471C40.7597 33.8377 40.8363 33.3175 40.9478 32.8204C40.9602 32.766 40.9769 32.7049 40.9948 32.6395C41.0804 32.3277 41.1923 31.9196 40.9757 31.6875C40.8245 31.5247 40.4338 31.2982 40.2286 31.2472C39.4598 31.0524 38.8925 31.1364 38.0915 31.3259C37.25 31.5249 36.4244 32.0049 35.8648 32.6719C35.5521 33.0449 35.2497 33.5214 35.0786 33.9797L35.0502 34.0556C34.8918 34.4775 34.7264 34.9179 34.6612 35.3622C34.598 35.7945 34.5522 36.4309 34.8467 36.7916C35.0596 37.0523 35.5024 37.2546 35.8241 37.3253C37.2714 37.6331 38.8017 36.2345 39.6934 35.2875C39.681 35.3012 39.7471 35.4497 39.777 35.5167C39.7832 35.5308 39.7879 35.5413 39.7899 35.5462C39.8243 35.6311 39.8625 35.7142 39.9068 35.7939C39.9966 35.9564 40.1119 36.1033 40.2452 36.2316C40.8858 36.848 41.9333 37.1674 42.7658 36.8299C43.5268 36.5223 44.1337 35.9316 44.6944 35.3477C45.0862 34.9404 45.441 34.4987 45.7545 34.028C45.7733 33.9996 45.8061 33.9409 45.8486 33.865L45.8486 33.8649C46.0339 33.5334 46.4028 32.8737 46.5908 32.9749C46.769 33.0707 46.8358 33.361 46.8915 33.6032L46.8915 33.6032L46.8915 33.6033C46.9126 33.6949 46.9321 33.7796 46.9554 33.8443C47.0799 34.1927 47.25 34.5228 47.4613 34.8258C47.9818 35.5642 48.7083 35.9963 49.5795 36.1871C50.5856 36.4068 51.6315 36.3205 52.6214 36.0492C52.7711 36.0082 52.9271 35.9676 53.0869 35.926L53.0869 35.926L53.087 35.926C54.1919 35.6385 55.4806 35.3032 56.1397 34.4306L56.1591 34.4051C56.3743 34.1218 56.8278 33.5249 56.1968 33.2552C55.775 33.1624 55.3615 33.3985 55.0377 33.5834ZM31.764 36.0497C31.7144 36.0964 31.6682 36.14 31.6266 36.1677C31.488 36.2593 31.3429 36.3406 31.1924 36.4109C30.591 36.6947 29.999 36.8872 29.3965 37.0831L29.3964 37.0831C29.0659 37.1906 28.7323 37.2991 28.3922 37.4243C28.3074 37.4555 28.2277 37.4867 28.1497 37.5173C27.8465 37.6361 27.5703 37.7443 27.1324 37.7992C25.7138 37.7992 24.5007 37.1434 23.9522 36.1541C23.5445 35.4173 23.3996 34.5196 23.4915 33.7067C23.527 33.3907 23.5792 33.0768 23.6477 32.7663C23.8069 32.0355 24.0992 31.2855 24.3997 30.6028C24.7048 29.9133 25.0866 29.2605 25.5377 28.6571C26.3792 27.5271 27.4316 26.4671 28.6741 25.7897C28.9804 25.6243 29.2982 25.4814 29.6249 25.3618C29.7832 25.3028 29.943 25.2488 30.1046 25.1978C30.1426 25.1857 30.181 25.1695 30.2197 25.1531C30.3315 25.1059 30.4467 25.0573 30.5663 25.0994C30.8088 25.1855 31.035 25.6405 31.1323 25.8607C31.1452 25.89 31.1587 25.9197 31.1724 25.9498L31.1725 25.95L31.1725 25.95C31.3055 26.2418 31.4568 26.5737 31.2109 26.9573C31.0495 26.9451 30.8826 26.8706 30.7203 26.7981C30.6331 26.7592 30.5472 26.7208 30.4642 26.6931C30.3908 26.6684 30.3256 26.6373 30.2613 26.6066L30.2613 26.6066C30.1728 26.5643 30.086 26.5229 29.9816 26.5001C29.9048 26.4832 29.8267 26.4686 29.7465 26.4554C29.7113 26.4494 29.6751 26.453 29.6417 26.4659C29.6083 26.4787 29.5789 26.5003 29.5566 26.5284C29.5343 26.5565 29.5199 26.59 29.5148 26.6256C29.5098 26.6612 29.5143 26.6974 29.5279 26.7306C29.6822 27.1061 30.0022 27.3495 30.3678 27.5282C30.606 27.6441 30.8551 27.7251 31.1053 27.8064L31.1053 27.8064L31.1053 27.8064C31.1594 27.824 31.2136 27.8416 31.2677 27.8596L31.2921 27.8678C31.4861 27.9332 31.689 28.0017 31.8351 27.8099C32.0186 27.5682 32.1144 27.1825 32.1786 26.8903C32.2685 26.4812 32.112 25.8232 32.0158 25.4189L32.0151 25.4157C31.9203 25.0209 31.758 24.6285 31.4543 24.3493C30.7851 23.7347 29.7622 23.9125 28.9912 24.2091C26.8836 25.0195 25.0671 26.964 23.9118 28.8621C23.184 30.0594 22.5352 31.5086 22.2298 32.8827C22.1314 33.3304 22.0594 33.7858 22.0176 34.2474C21.7729 36.8512 23.1223 39.4563 25.9549 40.0776C26.55 40.2084 27.944 40.3558 28.5122 40.0776L28.5245 40.0716C29.4265 39.6303 29.8269 39.4345 30.4843 38.588C30.601 38.4383 30.7442 38.2927 30.888 38.1464C31.058 37.9734 31.229 37.7995 31.3582 37.6169C31.4443 37.4954 31.5315 37.3847 31.6165 37.2769C31.7935 37.0523 31.9607 36.8402 32.0868 36.5692C32.112 36.5151 32.1525 36.4554 32.1943 36.3935C32.3249 36.2006 32.4697 35.9868 32.2124 35.8547C32.0556 35.7745 31.8977 35.9235 31.764 36.0497ZM39.8785 32.9928C39.7643 33.3189 39.6175 33.6301 39.4313 33.9212C39.0753 34.478 38.6133 34.9823 38.0599 35.3463C37.759 35.5458 37.435 35.7076 37.0951 35.8281C37.0542 35.8423 37.0089 35.8588 36.9602 35.8766C36.5911 36.0114 36.0308 36.216 35.7919 35.9889C35.7114 35.9123 35.6679 35.7868 35.6795 35.5924C35.7549 34.4052 36.4431 33.0582 37.5211 32.4897C37.8738 32.3044 38.2825 32.1652 38.6707 32.0798C38.7175 32.0695 38.7684 32.0572 38.8223 32.0442C39.158 31.9629 39.6077 31.8541 39.8782 32.0547C40.1443 32.2536 40.0017 32.6497 39.9032 32.9233C39.8945 32.9475 39.8862 32.9707 39.8785 32.9928Z" fill="black"/>
</svg>
