<svg width="72" height="60" viewBox="0 0 72 60" fill="none" xmlns="http://www.w3.org/2000/svg">
<path fill-rule="evenodd" clip-rule="evenodd" d="M35.9828 11.8865C36.4542 11.4686 36.7442 10.8747 36.8747 10.2656C37.2327 8.60636 36.6142 6.54505 35.5728 5.70029C34.7847 5.07208 33.4253 4.68801 32.4454 4.55162C31.3348 4.39667 30.0554 4.33556 28.9605 4.53852C26.5719 4.98314 24.1709 5.67285 21.9293 6.6358C20.6008 7.20679 19.4041 7.94902 18.1903 8.73883C15.948 10.2006 13.4733 12.191 11.5134 14.3493C9.15526 16.9483 7.42902 20.161 6.75036 23.2405C6.44356 24.6361 6.41587 26.0925 6.73168 27.4878C7.0665 28.9703 7.82911 30.2714 8.95005 31.0405C10.5116 32.1136 12.3949 32.6196 14.0859 33.4666C15.7668 34.3057 18.9673 35.6201 19.9337 36.6583C21.2862 38.0896 21.6919 41.3132 21.072 44.1126C20.9848 44.5094 20.8769 44.8978 20.7511 45.2709C19.2857 49.5801 14.0157 54.0717 8.42272 52.8337C7.46188 52.6208 5.55319 52.1589 5.08429 51.1561C4.67794 50.2901 4.89907 49.1386 3.71583 48.8853C3.64622 48.87 3.57352 48.8585 3.49731 48.8502L3.4662 48.8462L3.43724 48.8579C2.6821 49.1751 2.29719 49.7718 2.15783 50.4134C1.93189 51.4616 2.30699 52.6306 2.6944 53.1589C3.52913 54.2698 5.74451 55.2083 7.71403 55.6464C8.13676 55.7403 8.56455 55.8099 8.9953 55.8547C13.7918 56.3209 20.3735 52.8034 22.2809 47.1295C22.4274 46.6932 22.551 46.2406 22.6536 45.7766C23.5061 41.8729 22.8443 37.1463 20.6642 34.9082C18.1956 32.4148 15.0326 32.2399 12.0199 30.7608C9.33175 29.4395 8.03436 27.1059 8.30461 24.2014C8.32812 23.9412 8.69944 22.8522 8.7839 22.5778C10.8016 15.9324 17.0628 10.834 21.502 8.57953C22.2818 8.18086 25.0716 6.86374 26.0487 6.61455C28.3868 6.0194 30.1713 5.63443 32.5801 5.95116C33.2913 6.04543 34.2592 6.35134 34.8586 6.76081C35.777 7.38886 35.8522 8.32602 35.7592 9.3673C35.6875 10.1734 35.3437 10.7029 34.915 11.3379C34.7938 11.5167 34.3148 12.1148 34.443 12.3439C34.7052 12.8107 35.7758 12.0701 35.9828 11.8865Z" fill="white"/>
<path fill-rule="evenodd" clip-rule="evenodd" d="M66.9199 40.8348C66.7519 40.9307 66.6038 41.0153 66.4832 41.0526C66.2605 41.1217 66.0533 41.2099 65.8482 41.297C65.5292 41.4326 65.2156 41.566 64.8578 41.6219C64.594 41.6632 64.3431 41.7088 64.1002 41.753C63.3384 41.8915 62.6541 42.016 61.8906 41.9486C61.7115 41.9329 60.9252 41.7632 60.8807 41.7534C59.7821 41.5119 59.5026 40.7619 59.2505 40.0854L59.2505 40.0854C59.2319 40.0355 59.2134 39.9859 59.1948 39.937C58.8564 39.0501 58.9548 38.2907 59.1474 37.4145C59.1835 37.2499 59.2173 37.0809 59.2516 36.9096L59.2516 36.9096C59.4043 36.1468 59.5657 35.3406 59.9739 34.6956C60.4703 33.9121 61.3941 33.9255 62.2434 33.9379C62.4159 33.9404 62.5852 33.9429 62.7473 33.9386C63.4506 33.9211 64.1452 33.848 64.8435 33.7745L64.8435 33.7744L64.9713 33.761C65.0955 33.7475 65.2285 33.734 65.3678 33.7199L65.3687 33.7198L65.3691 33.7197C66.8808 33.5665 69.1303 33.3385 68.8968 32.1857L68.5338 32.0223L68.048 32.116C67.2808 32.2188 66.523 32.3388 65.776 32.4571C64.1459 32.7152 62.5674 32.9651 61.0558 33.0104C61.1368 33.008 61.427 32.3708 61.5976 31.9963C61.6535 31.8736 61.6965 31.7791 61.7152 31.7444C61.9439 31.3193 62.177 30.897 62.4139 30.4755C62.9144 29.5771 63.4739 28.7131 64.0887 27.8893C64.1182 27.85 64.1597 27.7979 64.2092 27.7358C64.5921 27.255 65.4518 26.1754 64.9265 25.7852C64.3787 25.5739 63.8367 25.8805 63.4192 26.2511C62.902 26.7103 62.5099 27.1837 62.0807 27.7285C61.236 28.8007 60.6245 29.8771 60.0249 31.1043C59.9352 31.2881 59.8384 31.4821 59.7405 31.6784C59.5907 31.9788 59.4381 32.2846 59.3043 32.5676C59.0324 33.1444 58.5001 33.2489 57.881 33.2099C57.7655 33.2026 57.6364 33.1796 57.5034 33.1558C57.2445 33.1095 56.9706 33.0605 56.7531 33.12C56.378 33.2224 56.3682 33.838 56.7211 34.0087C56.912 34.1011 57.1151 34.1196 57.3177 34.1381C57.5105 34.1556 57.7028 34.1732 57.8833 34.2543C58.3261 34.4537 58.1635 34.6968 57.968 34.989C57.943 35.0265 57.9174 35.0647 57.8925 35.1037C57.7531 35.3214 57.6074 35.5345 57.4616 35.7477L57.4616 35.7477L57.4616 35.7478L57.4616 35.7478L57.4616 35.7478C57.285 36.0061 57.1085 36.2644 56.9431 36.5306C56.7896 36.779 56.6453 37.0331 56.5011 37.2871C56.3615 37.5328 56.222 37.7785 56.0741 38.0191C55.7421 38.5561 55.3785 39.0727 54.9852 39.5662C54.7904 39.8188 54.5858 40.0607 54.3793 40.3036L54.3515 40.3364C54.0628 40.6767 53.7743 41.0167 53.4686 41.342C53.1211 41.7162 52.7663 42.0834 52.4042 42.4433L52.3273 42.5189C52.0757 42.7667 51.82 43.0185 51.5139 43.1965C51.3353 43.3001 51.1157 43.3717 50.9073 43.3738C50.5011 43.3767 49.9769 43.2866 49.7505 42.9051C49.6297 42.7031 49.5596 42.4744 49.5462 42.2389C49.5352 42.0807 49.5323 41.922 49.5376 41.7634C49.5585 41.144 49.6517 40.5114 49.7872 39.9069C49.8022 39.8408 49.8226 39.7665 49.8444 39.6871L49.8444 39.6871C49.9484 39.3079 50.0845 38.8116 49.8212 38.5294C49.6372 38.3314 49.1622 38.056 48.9128 37.994C47.9779 37.7572 47.2881 37.8593 46.3141 38.0897C45.2909 38.3317 44.287 38.9153 43.6065 39.7264C43.2263 40.1799 42.8586 40.7593 42.6506 41.3166L42.616 41.4089C42.4234 41.9219 42.2223 42.4574 42.143 42.9977C42.0662 43.5234 42.0105 44.2972 42.3686 44.7358C42.6275 45.0527 43.1659 45.2987 43.557 45.3847C45.3169 45.759 47.1776 44.0584 48.2619 42.9069C48.2468 42.9235 48.3272 43.104 48.3635 43.1855L48.371 43.2024L48.3793 43.2214C48.4211 43.3246 48.4675 43.4257 48.5214 43.5226C48.6307 43.7202 48.7708 43.8988 48.9328 44.0548C49.7118 44.8044 50.9856 45.1927 51.9978 44.7823C52.9231 44.4083 53.6611 43.69 54.3429 42.98C54.8193 42.4848 55.2507 41.9477 55.6319 41.3753C55.6548 41.3408 55.6947 41.2694 55.7464 41.177C55.9717 40.774 56.4202 39.9717 56.6488 40.0948C56.8655 40.2113 56.9467 40.5643 57.0145 40.8588C57.0401 40.9702 57.0638 41.0733 57.0922 41.152C57.2435 41.5756 57.4504 41.977 57.7073 42.3454C58.3402 43.2433 59.2236 43.7687 60.2829 44.0007C61.5063 44.2678 62.7781 44.1629 63.9818 43.8331C64.1637 43.7832 64.3534 43.7338 64.5477 43.6833L64.5479 43.6832C65.8914 43.3337 67.4584 42.926 68.2599 41.8649L68.2834 41.8339C68.5451 41.4893 69.0965 40.7636 68.3292 40.4356C67.8164 40.3229 67.3136 40.61 66.9199 40.8348ZM38.6201 43.8336C38.5599 43.8904 38.5037 43.9434 38.4531 43.9771C38.2846 44.0885 38.1081 44.1874 37.9251 44.2728C37.1939 44.6179 36.474 44.852 35.7414 45.0902L35.7414 45.0902L35.7414 45.0902L35.7414 45.0902C35.3395 45.2209 34.9337 45.3529 34.5202 45.5051C34.4173 45.543 34.3204 45.5809 34.2257 45.618L34.2255 45.6181L34.2254 45.6181C33.8567 45.7626 33.5209 45.8942 32.9884 45.961C31.2635 45.961 29.7883 45.1636 29.1214 43.9606C28.6257 43.0647 28.4494 41.9731 28.5612 40.9847C28.6044 40.6004 28.6678 40.2187 28.7511 39.8411C28.9447 38.9526 29.3001 38.0406 29.6656 37.2105C30.0365 36.3721 30.5007 35.5784 31.0493 34.8446C32.0725 33.4706 33.3522 32.1816 34.863 31.358C35.2355 31.1569 35.6218 30.983 36.0191 30.8377C36.2116 30.7659 36.4059 30.7003 36.6025 30.6383C36.6486 30.6235 36.6953 30.6038 36.7423 30.5839L36.7423 30.5839C36.8784 30.5265 37.0184 30.4674 37.1639 30.5187C37.4587 30.6233 37.7337 31.1766 37.8521 31.4444C37.8677 31.4799 37.8842 31.516 37.9008 31.5526L37.9009 31.5528L37.901 31.5529C38.0627 31.9077 38.2466 32.3113 37.9476 32.7778C37.7513 32.7629 37.5484 32.6723 37.3511 32.5842C37.245 32.5368 37.1406 32.4902 37.0397 32.4565C36.9504 32.4264 36.8711 32.3886 36.7929 32.3512C36.6853 32.2999 36.5798 32.2495 36.4529 32.2218C36.3595 32.2013 36.2646 32.1835 36.167 32.1675C36.1242 32.1602 36.0802 32.1646 36.0396 32.1802C35.999 32.1958 35.9632 32.222 35.9361 32.2562C35.9089 32.2903 35.8914 32.3312 35.8852 32.3744C35.8791 32.4176 35.8846 32.4617 35.9012 32.502C36.0888 32.9587 36.4778 33.2546 36.9224 33.4719C37.2121 33.6128 37.515 33.7113 37.8193 33.8102C37.885 33.8316 37.9509 33.853 38.0167 33.8749L38.0464 33.8849C38.2822 33.9644 38.5289 34.0477 38.7066 33.8144C38.9297 33.5205 39.0462 33.0515 39.1243 32.6963C39.2336 32.1989 39.0433 31.3987 38.9264 30.9072L38.9255 30.9032C38.8102 30.4231 38.6128 29.946 38.2436 29.6065C37.4298 28.8592 36.1861 29.0754 35.2485 29.436C32.6858 30.4215 30.4771 32.7859 29.0722 35.0939C28.1872 36.5498 27.3983 38.3119 27.027 39.9827C26.9073 40.5271 26.8199 41.0809 26.7691 41.6422C26.4715 44.8082 28.1123 47.976 31.5566 48.7313C32.2802 48.8904 33.9752 49.0696 34.6662 48.7313L34.6811 48.7241C35.7779 48.1875 36.2648 47.9494 37.064 46.9201C37.206 46.7381 37.3801 46.561 37.5549 46.3832L37.5549 46.3831C37.7617 46.1728 37.9696 45.9613 38.1267 45.7392C38.2314 45.5915 38.3375 45.4569 38.4408 45.3259L38.4408 45.3258C38.6561 45.0527 38.8593 44.7949 39.0127 44.4653C39.0434 44.3995 39.0925 44.3269 39.1434 44.2517C39.3022 44.0172 39.4783 43.7571 39.1654 43.5965C38.9747 43.499 38.7827 43.6802 38.6201 43.8336ZM48.4849 40.1178C48.346 40.5144 48.1676 40.8928 47.9411 41.2467C47.5082 41.9237 46.9465 42.537 46.2736 42.9795C45.9077 43.2221 45.5137 43.4189 45.1004 43.5654C45.0507 43.5827 44.9956 43.6028 44.9363 43.6245C44.4876 43.7883 43.8063 44.0371 43.5158 43.7609C43.4179 43.6678 43.3651 43.5152 43.3792 43.2788C43.4708 41.8352 44.3077 40.1973 45.6184 39.5061C46.0472 39.2807 46.5443 39.1116 47.0163 39.0076C47.0732 38.9952 47.1351 38.9802 47.2006 38.9644C47.6089 38.8656 48.1557 38.7333 48.4845 38.9772C48.8081 39.219 48.6347 39.7007 48.515 40.0334C48.5044 40.0628 48.4942 40.091 48.4849 40.1178Z" fill="white"/>
</svg>
