<svg width="1430" height="965" viewBox="0 0 1430 965" fill="none" xmlns="http://www.w3.org/2000/svg">
<path d="M-16.1089 4.27532C-16.1089 4.27532 24.0778 -0.255 59.1198 0.877577C94.1618 2.01015 393.165 8.80563 421.431 4.27532C449.696 -0.254985 514.125 1.1081 518.649 3.25298C523.173 5.40788 527.698 10.4995 527.698 10.4995C527.698 10.4995 598.212 8.23434 665.614 8.23434C733.015 8.23434 949.213 4.23524 987.367 5.59834C1025.52 6.96144 1107.76 2.96234 1186.19 5.59834C1264.62 8.23434 1329.05 -0.475494 1358.3 0.697174C1387.54 1.86984 1396.02 5.54824 1396.02 5.54824V937.038L-16.9297 924.78L-16.1189 4.27532H-16.1089Z" fill="#02304F" stroke="black" stroke-miterlimit="10"/>
<path d="M1425.21 964.099H1396.02V6.96082C1396.02 3.91389 1398.98 4.13438 1398.98 4.13438H1428.5L1425.21 964.099Z" fill="#02304F" stroke="black" stroke-miterlimit="10"/>
<path d="M444.447 116.061C444.367 116.231 444.286 116.401 444.186 116.572C442.475 119.488 439.922 120.871 436.539 120.711C435.338 120.661 434.357 120.25 433.617 119.639C432.045 120.24 430.504 120.912 429.373 121.102C425.189 121.784 420.835 121.774 416.611 121.784C407.393 121.784 398.184 121.102 388.966 121.353C380.828 121.573 372.721 122.265 364.584 122.435C356.186 122.615 348.099 121.523 339.761 120.821C323.376 119.438 306.901 120.12 290.506 120.631C273.531 121.162 256.535 121.753 239.549 121.533C231.502 121.433 223.555 120.801 215.548 120.15C209.072 119.629 203.066 120.511 196.951 117.774C195.98 117.343 195.329 116.742 194.919 116.061H183.648V137.71H458.91V116.061H444.467H444.447Z" fill="#06486A"/>
<path d="M172.891 116.061H154.575C156.937 118.616 156.837 123.307 152.553 124.009C145.056 125.231 138.35 123.197 131.073 121.613C122.485 119.749 113.487 119.358 104.719 119.358C87.0629 119.358 69.3567 119.749 51.6906 119.909C38.3884 120.03 25.1063 121.663 11.8542 122.636C5.63852 123.087 -4.43068 122.615 -6.02213 116.061H-16.3516V137.71H172.891V116.061Z" fill="#06486A"/>
<path d="M756.997 116.061C755.236 116.482 753.534 117.464 751.833 117.995C750.842 118.296 749.951 118.296 749.17 118.085C747.819 118.506 746.448 118.897 745.046 119.168C741.493 119.849 737.92 119.969 734.317 119.949C725.419 119.879 716.551 120.02 707.662 120.41C689.486 121.212 671.519 122.154 653.323 121.753C620.022 121.032 585.731 125.342 553.081 116.862C552.401 116.682 551.84 116.411 551.36 116.061H525.016V137.71H799.997V116.061H756.997Z" fill="#06486A"/>
<path d="M1091.8 116.061C1090.98 117.203 1089.68 118.045 1087.96 118.165C1080.87 118.686 1073.92 117.594 1066.92 116.832C1066.62 116.852 1066.31 116.872 1066.01 116.882C1058.64 117.313 1051.25 118.055 1043.87 118.165C1042.71 118.185 1041.77 117.865 1041.03 117.333C1038.48 117.584 1035.94 117.825 1033.41 117.965C999.338 119.929 965.227 117.694 931.145 117.143C897.415 116.602 863.664 117.303 829.933 117.313C828.512 117.313 827.421 116.822 826.63 116.061H816.391V137.71H1105.21V116.061H1091.79H1091.8Z" fill="#06486A"/>
<path d="M1388.27 119.548C1381.58 120.831 1375.28 124.239 1368.26 123.948C1365.11 123.818 1362.94 123.026 1360.21 121.643C1358.77 120.911 1358.31 120.37 1356.62 120.28C1354.76 120.18 1352.87 120.28 1351.01 120.27C1335.32 120.129 1319.76 120.2 1304.07 120.801C1288.23 121.412 1272.39 121.643 1256.54 121.713C1249.22 121.743 1241.9 122.044 1234.6 121.352C1229 120.821 1223.16 120.33 1218.31 117.223C1217.78 116.882 1217.36 116.491 1217.01 116.07H1211.32C1203.97 117.744 1196.51 118.656 1189.04 119.709C1180.42 120.931 1171.86 122.555 1163.19 123.337C1154.76 124.099 1145.99 124.339 1137.63 122.766C1132.77 121.853 1126.33 120.21 1123.16 116.07H1118.95V137.72H1391.38V117.393C1390.85 118.436 1389.85 119.258 1388.29 119.558L1388.27 119.548Z" fill="#06486A"/>
<path d="M428.184 22.3156C422.469 21.8446 416.714 21.7945 411.019 21.0929C405.454 20.4113 400.099 18.8377 394.464 18.8277C393.232 18.8277 392.252 18.4468 391.491 17.8555H-16.1113L-16.3516 32.5389H458.882L457.741 23.368C448.012 24.4304 437.833 23.0974 428.184 22.3056V22.3156Z" fill="#06486A"/>
<path d="M803.257 18.6582L525.144 22.517L524.703 32.5498H803.257V18.6582Z" fill="#06486A"/>
<path d="M1105.22 20.622L814.82 18.9883L816.392 32.5492H1105.22V20.622Z" fill="#06486A"/>
<path d="M1117.78 22.5467L1118.89 32.5495H1396.01L1395.71 21.7148L1117.78 22.5467Z" fill="#06486A"/>
<path d="M155.648 17.2949V117.723C156.249 119.127 156.309 120.72 155.648 121.963V179.173H171.473V17.2949H155.648Z" fill="#06486A"/>
<path d="M446.871 21.9662V112.292C447.372 113.424 447.442 114.717 446.871 116.02V182.01H461.284V21.8359L446.871 21.9763V21.9662Z" fill="#06486A"/>
<path d="M803.957 25.2227H792.086V184.265H803.957V25.2227Z" fill="#06486A"/>
<path d="M1105.22 21.7246H1093.35V178.04H1105.22V21.7246Z" fill="#06486A"/>
<path d="M1396.45 689.555L1379.91 681.917V21.7249L1395.71 21.7148L1396.45 689.555Z" fill="#06486A"/>
<path d="M1379.92 426.367H1293.16V442.925H1379.92V426.367Z" fill="#06486A"/>
<path d="M1381.76 540.978H1293.16V526.545L1342.39 522.266L1379.92 524.641L1381.76 540.978Z" fill="#06486A"/>
<path d="M1384.3 337.223H1293.15L1293.21 323.852L1352.9 319.873L1382.71 320.735L1384.3 337.223Z" fill="#06486A"/>
<path d="M1380.61 227.172L1376.94 226.56C1376.16 227.352 1375.07 227.893 1373.68 227.964C1368.49 228.234 1363.07 227.092 1359.13 223.594L1349.03 221.92L1293.16 222.812V239.159H1382.18L1380.61 227.172Z" fill="#06486A"/>
<path d="M946.396 696.492H504.953V708.379H946.396V696.492Z" fill="#06486A"/>
<path d="M802.818 718H788.125V933.08H802.818V718Z" fill="#06486A"/>
<path d="M594.328 834.024C592.716 834.184 591.105 834.345 589.493 834.485C583.518 835.006 577.543 835.447 571.537 835.557C565.912 835.667 560.077 835.407 554.522 836.479C547.395 837.863 539.598 840.799 533.933 834.395C533.823 834.274 533.723 834.144 533.632 834.014H527.547V851.564H788.115V834.014H594.318L594.328 834.024Z" fill="#06486A"/>
<path d="M794.629 708.227C794.408 708.828 794.078 709.4 793.568 709.881C791.616 711.735 789.494 713.098 787.242 714.1C786.051 715.123 784.82 716.095 783.198 716.526C781.226 717.057 779.225 716.997 777.333 716.436C767.964 717.147 757.695 714.772 748.897 714.772C740.209 714.772 732.272 717.438 723.824 719.012C714.996 720.665 705.978 720.044 697.05 719.824C694.527 719.763 691.995 719.693 689.473 719.633C682.706 719.703 675.95 719.633 669.184 719.573C669.014 719.573 668.834 719.573 668.664 719.573C659.755 719.844 650.897 720.706 641.979 720.685C638.106 720.685 634.242 720.525 630.389 720.295C620.76 720.625 611.131 720.926 601.482 720.926C591.833 720.926 578.681 722.78 569.823 717.378C568.993 717.318 568.162 717.268 567.331 717.208C562.116 716.797 557.102 716.115 552.067 714.682C546.832 713.198 541.798 711.444 536.293 711.585C533.74 711.655 532.219 710.101 531.719 708.207H525.703L527.555 737.784H802.816L804.057 708.207H794.619L794.629 708.227Z" fill="#06486A"/>
<path d="M129.642 530.654H-16.3516V546.5H129.642V530.654Z" fill="#06486A"/>
<path d="M81.0274 425.274C65.1128 425.444 49.1983 425.976 33.2738 426.056C24.6058 426.096 15.9079 425.785 7.24999 426.066C1.90511 426.236 -1.79827 425.565 -3.9102 421.135L-16.3516 420.533V445.761H129.642V427.649L81.0274 425.284V425.274Z" fill="#06486A"/>
<path d="M81.0173 631.614C65.1028 631.784 49.3184 631.463 33.3939 631.544C24.7259 631.584 16.048 631.684 7.39012 631.965C2.04524 632.135 -3.34969 632.386 -4.83104 626.873L-16.3516 625.881V649.765H129.642V631.654L81.0073 631.604L81.0173 631.614Z" fill="#06486A"/>
<path d="M131.053 328.594H-16.3516V343.307H131.053V328.594Z" fill="#06486A"/>
<path d="M132.895 242.991H-16.3516V223.887C-13.6891 219.608 -7.92387 218.565 -3.93022 221.632L-0.987533 223.887H132.895V242.991Z" fill="#06486A"/>
<path d="M-16.1094 17.8555H358.122C358.122 17.8555 401.222 18.9881 420.049 21.183C436.484 23.0974 462.127 22.3858 462.127 22.3858" fill="#02304F"/>
<path d="M-16.1094 17.8555H358.122C358.122 17.8555 401.222 18.9881 420.049 21.183C436.484 23.0974 462.127 22.3858 462.127 22.3858" stroke="black" stroke-width="3" stroke-miterlimit="10"/>
<path d="M1.89707 65.9668L-16.1094 77.8539" stroke="black" stroke-width="3" stroke-miterlimit="10"/>
<path d="M107.164 59.4609C107.164 59.4609 120.166 70.3557 125.821 74.1744C131.476 77.9931 145.459 82.5234 145.459 82.5234" stroke="black" stroke-width="3" stroke-miterlimit="10"/>
<path d="M130.836 68.0898C130.836 68.0898 132.527 70.6357 136.351 72.119C140.164 73.6024 143.558 74.6648 143.558 74.6648" stroke="black" stroke-width="3" stroke-miterlimit="10"/>
<path d="M172.734 17.8555V173.51" stroke="black" stroke-width="3" stroke-miterlimit="10"/>
<path d="M183.754 17.8555V175.204" stroke="black" stroke-width="3" stroke-miterlimit="10"/>
<path d="M200.992 92.0752C200.992 92.0752 225.154 85.0692 237.876 77.8528C250.598 70.6364 262.458 59.4609 262.458 59.4609" stroke="black" stroke-width="3" stroke-miterlimit="10"/>
<path d="M255.469 96.5358C255.469 96.5358 269.031 88.6779 276.238 82.5239C283.444 76.3699 285.136 74.666 285.136 74.666" stroke="black" stroke-width="3" stroke-miterlimit="10"/>
<path d="M276.656 89.1083L286.625 81.4609" stroke="black" stroke-width="3" stroke-miterlimit="10"/>
<path d="M-16.9297 116.341C-16.9297 116.341 -10.1835 109.546 -9.16259 112.944C-8.14166 116.341 -4.74856 121.152 -0.794953 121.714C3.15866 122.275 65.3354 119.729 91.0489 120.02C116.762 120.31 127.502 120.471 133.438 121.804C139.373 123.137 139.934 125.963 149.542 125.121C159.151 124.279 166.218 118.637 166.218 118.637" stroke="black" stroke-width="3" stroke-miterlimit="10"/>
<path d="M-16.1094 168.98C-16.1094 168.98 5.91073 185.819 21.535 192.474C44.1456 202.096 65.335 205.213 65.335 205.213" stroke="black" stroke-width="3" stroke-miterlimit="10"/>
<path d="M-10.4062 187.092C-10.4062 187.092 8.8113 202.657 17.5693 205.203C26.3273 207.749 31.7022 205.203 31.7022 205.203" stroke="black" stroke-width="3" stroke-miterlimit="10"/>
<path d="M-16.1094 218.784C-16.1094 218.784 -14.3578 215.386 -10.3942 215.957C-6.43054 216.529 -0.505126 223.314 -0.505126 223.314H121.296" stroke="black" stroke-width="3" stroke-miterlimit="10"/>
<path d="M-16.1094 421.665C-16.1094 421.665 -14.3578 418.267 -10.3942 418.838C-6.44055 419.399 -0.505126 426.195 -0.505126 426.195H121.296" stroke="black" stroke-width="3" stroke-miterlimit="10"/>
<path d="M-11.8359 624.568C-6.78132 623.947 -3.77858 628.958 -0.775839 631.965C40.2616 631.965 80.2982 631.965 121.296 631.965" stroke="black" stroke-width="3" stroke-miterlimit="10"/>
<path d="M-16.1094 273.408C-16.1094 273.408 14.5987 292.281 22.3858 296.33C37.0792 303.968 63.6435 308.217 63.6435 308.217" stroke="black" stroke-width="3" stroke-miterlimit="10"/>
<path d="M-8.98438 289.826C-8.98438 289.826 10.5134 304.68 16.0285 306.244C21.5435 307.807 31.7128 308.228 31.7128 308.228" stroke="black" stroke-width="3" stroke-miterlimit="10"/>
<path d="M-16.1094 326.609H120.165" stroke="black" stroke-width="3" stroke-miterlimit="10"/>
<path d="M1.32812 339.629C1.32812 339.629 8.95509 344.861 11.3573 348.399C13.7595 351.937 16.1617 358.021 16.1617 358.021" stroke="black" stroke-width="3" stroke-miterlimit="10"/>
<path d="M1.32812 542.539C1.32812 542.539 5.99238 543.672 11.3573 551.028C16.7222 558.385 16.1617 561.783 16.1617 561.783" stroke="black" stroke-width="3" stroke-miterlimit="10"/>
<path d="M-10.5312 479.086C11.2486 496.656 39.2742 503.672 66.1988 509.996" stroke="black" stroke-width="3" stroke-miterlimit="10"/>
<path d="M-10.1133 494.141C-10.1133 494.141 1.18704 499.232 7.12246 503.201C13.0579 507.16 18.0825 511.5 25.0388 511.971C28.7422 512.222 30.7941 512.081 30.7941 512.081" stroke="black" stroke-width="3" stroke-miterlimit="10"/>
<path d="M189.688 112C189.688 112 194.212 120.028 202.97 120.59C211.728 121.151 399.95 122.283 399.95 122.283C399.95 122.283 431.949 121.562 442.628 118.635C450.966 116.34 454.499 112 454.499 112" stroke="black" stroke-width="3" stroke-miterlimit="10"/>
<path d="M309.52 150.308L335.513 140.115" stroke="black" stroke-width="3" stroke-miterlimit="10"/>
<path d="M326.754 150.307L343.709 142.379" stroke="black" stroke-width="3" stroke-miterlimit="10"/>
<path d="M345.121 150.307L353.038 142.379" stroke="black" stroke-width="3" stroke-miterlimit="10"/>
<path d="M408.93 168.699C408.93 168.699 427.587 158.226 435.003 150.308C442.42 142.38 446.454 133.68 446.454 133.68" stroke="black" stroke-width="3" stroke-miterlimit="10"/>
<path d="M425.242 170.826L437.964 155.752" stroke="black" stroke-width="3" stroke-miterlimit="10"/>
<path d="M462.129 18.9883V174.071" stroke="black" stroke-width="3" stroke-miterlimit="10"/>
<path d="M515.828 2.67188V174.072" stroke="black" stroke-width="3" stroke-miterlimit="10"/>
<path d="M525.145 7.94531V174.073" stroke="black" stroke-width="3" stroke-miterlimit="10"/>
<path d="M480.773 57.4766C480.773 57.4766 479.362 62.8488 478.511 69.3636C477.66 75.8684 478.511 78.7049 478.511 78.7049" stroke="black" stroke-width="3" stroke-miterlimit="10"/>
<path d="M486.151 49.8381C486.151 49.8381 491.516 42.4813 497.742 47.2923C503.957 52.1032 490.115 84.2264 490.115 84.2264L479.465 108" stroke="black" stroke-width="3" stroke-miterlimit="10"/>
<path d="M487.141 114.075C487.141 114.075 495.778 97.2269 497.88 92.1454C501.554 83.2351 502.965 73.4629 502.965 73.4629" stroke="black" stroke-width="3" stroke-miterlimit="10"/>
<path d="M471.456 173.159C471.456 173.159 470.184 159.578 471.456 150.026C472.727 140.474 475.479 131.344 475.479 131.344" stroke="black" stroke-width="3" stroke-miterlimit="10"/>
<path d="M525.145 22.5178C525.145 22.5178 651.61 19.4007 676.202 20.1925C700.795 20.9843 737.248 22.7884 756.326 22.5178C775.403 22.2472 780.628 18.9898 799.845 18.7091C819.063 18.4285 1079.35 22.5178 1079.35 22.5178" stroke="black" stroke-width="3" stroke-miterlimit="10"/>
<path d="M804.23 18.9883V173.159" stroke="black" stroke-width="3" stroke-miterlimit="10"/>
<path d="M814.82 18.9883V173.159" stroke="black" stroke-width="3" stroke-miterlimit="10"/>
<path d="M540.971 127.527C540.971 127.527 536.947 130.073 536.727 135.165C536.507 140.256 536.727 160.001 536.727 160.001" stroke="black" stroke-width="3" stroke-miterlimit="10"/>
<path d="M543.941 134.953V143.763" stroke="black" stroke-width="3" stroke-miterlimit="10"/>
<path d="M573.828 167.217L582.726 174.072" stroke="black" stroke-width="3" stroke-miterlimit="10"/>
<path d="M670.125 64.2734C670.125 64.2734 676.911 71.069 685.669 73.4744C694.427 75.8799 700.082 75.028 700.082 75.028" stroke="black" stroke-width="3" stroke-miterlimit="10"/>
<path d="M626.891 53.2383C626.891 53.2383 657.699 76.4411 666.176 80.4101C674.654 84.3691 691.329 84.3691 691.329 84.3691" stroke="black" stroke-width="3" stroke-miterlimit="10"/>
<path d="M532.492 109.555C532.492 109.555 532.492 122.294 634.796 122.003C737.099 121.712 752.373 118.234 757.448 117.753C764.044 117.142 768.878 116.17 771.561 116.841C775.995 117.954 780.058 118.325 784.012 117.463C791.779 115.769 795.883 110.667 795.883 110.667" stroke="black" stroke-width="3" stroke-miterlimit="10"/>
<path d="M833.758 28.6094C833.758 28.6094 856.649 32.5683 869.37 33.1396C882.092 33.7009 891.981 33.1396 891.981 33.1396" stroke="black" stroke-width="3" stroke-miterlimit="10"/>
<path d="M951.895 86.3431L944.828 75.0273" stroke="black" stroke-width="3" stroke-miterlimit="10"/>
<path d="M1013.22 110.688C1013.22 110.688 1066.35 110.689 1080.76 99.934C1089.85 93.1486 1089.95 86.0625 1089.95 86.0625" stroke="black" stroke-width="3" stroke-miterlimit="10"/>
<path d="M945.82 63.4219L954.718 78.7067" stroke="black" stroke-width="3" stroke-miterlimit="10"/>
<path d="M821.605 113.516C821.605 113.516 827.261 119.038 846.899 118.467C866.536 117.896 1080.19 118.748 1080.19 118.748C1080.19 118.748 1089.24 118.918 1094.04 118.507C1097.78 118.186 1098.29 115.49 1098.29 115.49" stroke="black" stroke-width="3" stroke-miterlimit="10"/>
<path d="M1059.42 147.051L1066.63 155.54" stroke="black" stroke-width="3" stroke-miterlimit="10"/>
<path d="M1055.4 154.477L1066.63 168.699" stroke="black" stroke-width="3" stroke-miterlimit="10"/>
<path d="M1105.06 86.3438V174.925" stroke="black" stroke-width="3" stroke-miterlimit="10"/>
<path d="M1396.01 22.5469H1117.79V174.924" stroke="black" stroke-width="3" stroke-miterlimit="10"/>
<path d="M1123.01 116.152C1123.01 116.152 1123.43 125.403 1165.54 122.857C1207.65 120.311 1214.14 113.516 1214.14 113.516C1214.14 113.516 1217.82 120.311 1228.84 120.592C1239.86 120.872 1353.19 120.592 1353.19 120.592C1353.19 120.592 1363.08 123.739 1373.54 123.298C1384 122.857 1391.07 118.788 1391.07 118.788" stroke="black" stroke-width="3" stroke-miterlimit="10"/>
<path d="M1298.72 82.9561C1298.72 82.9561 1320.13 82.7457 1330.09 79.1375C1340.05 75.5292 1351.71 72.5625 1351.71 72.5625" stroke="black" stroke-width="3" stroke-miterlimit="10"/>
<path d="M1332.85 86.3423C1332.85 86.3423 1348.33 82.3131 1358.72 81.4612C1369.1 80.6092 1375.41 80.7195 1375.41 80.7195" stroke="black" stroke-width="3" stroke-miterlimit="10"/>
<path d="M1412.25 4.13477L1409.25 697.623" stroke="black" stroke-width="3" stroke-miterlimit="10"/>
<path d="M1293.21 221.97C1293.21 221.97 1347.26 221.76 1351.08 221.97C1354.89 222.181 1362.31 228.335 1371.64 227.704C1380.96 227.072 1390.07 222.822 1390.07 222.822" stroke="black" stroke-width="3" stroke-miterlimit="10"/>
<path d="M1293.22 323.853C1293.22 323.853 1351.58 319.683 1359.03 319.603C1369.84 319.493 1371.43 321.016 1376.51 320.736C1381.6 320.455 1390.08 314.512 1390.08 314.512" stroke="black" stroke-width="3" stroke-miterlimit="10"/>
<path d="M1293.21 425.946C1293.21 425.946 1341.54 424.031 1351.51 425.946C1361.47 427.86 1362.96 429.343 1371.86 428.912C1380.75 428.492 1391.56 425.094 1391.56 425.094" stroke="black" stroke-width="3" stroke-miterlimit="10"/>
<path d="M1293.22 526.542C1293.22 526.542 1346.42 521.02 1355.96 522.082C1365.49 523.145 1369.52 524.919 1375.66 524.247C1381.81 523.576 1391.56 515.297 1391.56 515.297" stroke="black" stroke-width="3" stroke-miterlimit="10"/>
<path d="M1294.14 154.268L1297.95 178.042" stroke="black" stroke-width="3" stroke-miterlimit="10"/>
<path d="M1304.03 157.523L1306 173.369" stroke="black" stroke-width="3" stroke-miterlimit="10"/>
<path d="M1305.02 260.389V275.102" stroke="black" stroke-width="3" stroke-miterlimit="10"/>
<path d="M1294.14 258.264L1297.95 279.492" stroke="black" stroke-width="3" stroke-miterlimit="10"/>
<path d="M1293.22 462.238L1297.66 482.825" stroke="black" stroke-width="3" stroke-miterlimit="10"/>
<path d="M1303.82 463.301L1306.15 477.944" stroke="black" stroke-width="3" stroke-miterlimit="10"/>
<path d="M1425.21 8.23438C1425.21 8.23438 1421.88 20.4021 1423.01 28.0395C1424.14 35.6768 1425.21 39.3552 1425.21 39.3552" stroke="black" stroke-width="3" stroke-miterlimit="10"/>
<path d="M1428.23 77.7539L1428.02 89.7412" stroke="black" stroke-width="3" stroke-miterlimit="10"/>
<path d="M1423.98 53.8691C1423.98 53.8691 1421.23 62.3585 1420.81 69.3644C1420.39 76.3704 1420.81 84.6492 1420.81 84.6492" stroke="black" stroke-width="3" stroke-miterlimit="10"/>
<path d="M1419.12 149.387C1419.12 149.387 1421.92 163.609 1425.21 170.615L1428.5 177.621" stroke="black" stroke-width="3" stroke-miterlimit="10"/>
<path d="M1420.81 251.898C1420.81 251.898 1420.86 264.848 1423.81 271.854C1426.75 278.86 1428.49 281.406 1428.49 281.406" stroke="black" stroke-width="3" stroke-miterlimit="10"/>
<path d="M1420.17 453.959C1420.17 453.959 1418.26 465.425 1422.5 473.914C1426.75 482.404 1428.49 484.318 1428.49 484.318" stroke="black" stroke-width="3" stroke-miterlimit="10"/>
<path d="M531.219 708.229C531.219 708.229 537.865 719.695 606.247 721.388C674.64 723.082 713.185 720.747 727.068 719.264C740.95 717.78 757.375 713.962 765.433 715.655C773.49 717.349 774.551 719.264 780.697 718.201C786.842 717.139 795.85 708.229 795.85 708.229" stroke="black" stroke-width="3" stroke-miterlimit="10"/>
<path d="M513.844 708.229V931.096" stroke="black" stroke-width="3" stroke-miterlimit="10"/>
<path d="M525.715 708.229V929.823" stroke="black" stroke-width="3" stroke-miterlimit="10"/>
<path d="M804.07 708.229V931.096" stroke="black" stroke-width="3" stroke-miterlimit="10"/>
<path d="M815.941 708.229V929.823" stroke="black" stroke-width="3" stroke-miterlimit="10"/>
<path d="M542.25 729.454C542.25 729.454 534.623 727.76 535.043 743.035C535.464 758.32 535.023 767.651 535.023 767.651" stroke="black" stroke-width="3" stroke-miterlimit="10"/>
<path d="M545.632 735.82C545.632 735.82 542.879 737.735 543.09 741.122C543.3 744.51 543.08 746.855 543.08 746.855" stroke="black" stroke-width="3" stroke-miterlimit="10"/>
<path d="M574.461 771.902C574.461 771.902 583.579 781.244 591.416 787.398C599.254 793.552 606.47 795.887 606.47 795.887" stroke="black" stroke-width="3" stroke-miterlimit="10"/>
<path d="M580.828 789.102C580.828 789.102 596.512 809.478 623.217 812.234C649.921 814.99 671.971 809.267 671.971 809.267" stroke="black" stroke-width="3" stroke-miterlimit="10"/>
<path d="M775.613 791.438C775.613 791.438 768.616 799.716 763.952 803.956C759.288 808.196 749.539 814.36 749.539 814.36" stroke="black" stroke-width="3" stroke-miterlimit="10"/>
<path d="M786.842 787.828L776.883 801.038" stroke="black" stroke-width="3" stroke-miterlimit="10"/>
<path d="M795.852 806.289V821.574" stroke="black" stroke-width="3" stroke-miterlimit="10"/>
<path d="M843.649 776.574C843.649 776.574 843.438 795.257 857.211 802.894C870.984 810.531 879.682 811.383 879.682 811.383" stroke="black" stroke-width="3" stroke-miterlimit="10"/>
<path d="M868.656 799.074C868.656 799.074 876.924 802.472 887.734 803.955C898.544 805.439 901.086 805.228 901.086 805.228" stroke="black" stroke-width="3" stroke-miterlimit="10"/>
<path d="M907.453 745.371H928.012" stroke="black" stroke-width="3" stroke-miterlimit="10"/>
<path d="M824.148 827.729C824.148 827.729 824.569 831.758 827.752 832.189C830.935 832.61 908.716 833.672 908.716 833.672" stroke="black" stroke-width="3" stroke-miterlimit="10"/>
<path d="M531.223 830.696C531.223 830.696 533.345 838.554 549.029 838.554C564.713 838.554 626.179 833.883 649.07 833.673C671.961 833.463 785.715 834.455 790.379 833.673C795.044 832.891 795.854 829.213 795.854 829.213" stroke="black" stroke-width="3" stroke-miterlimit="10"/>
<path d="M580.398 889.629L588.456 898.83" stroke="black" stroke-width="3" stroke-miterlimit="10"/>
<path d="M574.461 896.145L592.127 920.059" stroke="black" stroke-width="3" stroke-miterlimit="10"/>
<path d="M700.367 909.585C700.367 909.585 726.511 897.558 738.092 890.903C749.682 884.248 757.589 877.182 757.589 877.182" stroke="black" stroke-width="3" stroke-miterlimit="10"/>
<path d="M730.602 907.321L757.596 893.379" stroke="black" stroke-width="3" stroke-miterlimit="10"/>
<path d="M897.344 915.949L909.215 901.938" stroke="black" stroke-width="3" stroke-miterlimit="10"/>
<path d="M1160.32 98.3711C1160.32 98.3711 1174.94 101.418 1179.6 101.418H1184.27" stroke="black" stroke-width="3" stroke-miterlimit="10"/>
<path d="M1393.05 5.98242V690.075" stroke="black" stroke-width="2" stroke-miterlimit="10"/>
<path d="M1256.58 174.264H153.252C134.607 174.264 119.492 189.399 119.492 208.07V659.946C119.492 678.616 134.607 693.752 153.252 693.752H1256.58C1275.23 693.752 1290.34 678.616 1290.34 659.946V208.07C1290.34 189.399 1275.23 174.264 1256.58 174.264Z" fill="#104A71"/>
<path d="M1238.82 186.043H167.26C148.615 186.043 133.5 201.178 133.5 219.849V657.636C133.5 676.307 148.615 691.442 167.26 691.442H1238.82C1257.47 691.442 1272.58 676.307 1272.58 657.636V219.849C1272.58 201.178 1257.47 186.043 1238.82 186.043Z" fill="#02304F" stroke="black" stroke-width="3" stroke-miterlimit="10"/>
<path d="M491.468 758.098C484.288 752.17 478.468 753.522 475.318 755.144C478.478 752.871 483.258 749.106 481.678 748.135C479.378 746.713 474.478 748.135 474.478 748.135C474.478 748.135 478.798 740.775 477.358 738.872C475.918 736.969 477.938 737.68 475.338 736.258C472.748 734.837 466.128 737.21 466.128 737.21L471.598 727.717C471.598 727.717 473.328 727.246 470.158 726.054C470.038 726.014 469.908 725.974 469.768 725.944C473.288 724.412 475.488 721.839 472.748 717.513C467.918 709.902 459.898 709.983 455.888 710.583C456.748 710.113 457.458 709.222 457.198 707.539C456.988 706.127 456.408 705.436 455.778 705.126C461.318 704.916 474.578 703.574 470.438 695.433C465.258 685.229 452.298 681.193 452.298 681.193C452.298 681.193 444.888 679.411 439.918 679.771C434.948 680.132 434.088 680.482 434.088 680.482C434.088 680.482 438.408 672.111 433.658 670.689C428.908 669.267 419.618 677.458 419.618 677.458C419.618 677.458 422.638 664.821 416.598 664.46C410.558 664.1 404.288 668.556 404.288 668.556C404.288 668.556 405.588 656.63 400.398 656.63C395.208 656.63 384.198 665.712 384.198 665.712C384.198 665.712 387.868 649.15 382.258 647.017C376.648 644.884 360.448 655.919 360.448 655.919C360.448 655.919 371.248 632.237 360.878 629.563C350.508 626.889 336.258 649.33 336.258 649.33C336.258 649.33 340.148 627.25 331.938 628.502C323.728 629.743 323.088 648.979 323.088 648.979C323.088 648.979 318.988 637.584 314.238 639.717C309.488 641.85 304.088 655.568 304.088 655.568C304.088 655.568 300.628 637.404 293.718 640.258C286.808 643.101 281.408 661.446 281.408 661.446C281.408 661.446 281.408 645.425 273.418 647.738C265.428 650.051 263.268 655.218 263.268 655.218C263.268 655.218 268.448 639.907 263.048 639.016C257.648 638.125 242.968 652.724 242.968 652.724C242.968 652.724 246.638 642.4 242.108 637.944C237.568 633.488 225.698 641.329 225.698 641.329C225.698 641.329 234.768 624.416 224.838 620.32C214.908 616.225 211.448 626.379 211.448 626.379C211.448 626.379 215.118 608.044 206.698 605.901C198.278 603.768 192.228 625.668 192.228 625.668C192.228 625.668 196.328 610.176 188.988 608.935C181.648 607.693 174.948 613.741 174.948 613.741C174.948 613.741 179.268 596.468 169.338 594.335C159.408 592.202 158.538 603.948 158.538 603.948C158.538 603.948 156.378 588.277 147.958 586.324C139.538 584.361 140.398 599.502 140.398 599.502C140.398 599.502 133.918 584.902 126.788 589.528C119.658 594.155 122.688 610.717 122.688 610.717C122.688 610.717 116.208 602.706 111.678 604.489C107.138 606.271 109.298 615.884 109.298 615.884C109.298 615.884 101.088 604.308 95.2578 605.911C89.4278 607.513 100.658 624.426 100.658 624.426C100.658 624.426 91.8078 619.089 88.3478 623.715C86.4078 626.308 89.0878 630.694 91.8078 634.039C88.9078 631.496 84.9878 629.142 81.4378 630.654C74.7478 633.498 77.3378 640.448 77.3378 640.448C77.3378 640.448 73.4478 632.968 67.1878 634.39C60.9278 635.811 61.5778 642.581 61.5778 642.581C61.5778 642.581 57.9078 624.957 49.0478 626.909C40.1978 628.872 38.2478 639.376 38.2478 639.376C38.2478 639.376 31.9878 624.246 21.4078 625.307C10.8278 626.369 15.1478 643.292 15.1478 643.292C15.1478 643.292 9.96781 632.787 3.05781 637.233C-3.85219 641.689 13.6378 657.171 13.6378 657.171C13.6378 657.171 5.21781 653.966 -0.182188 657.701C-5.58219 661.436 9.96781 674.264 9.96781 674.264C9.96781 674.264 -6.66219 667.855 -13.5722 671.951C-20.4822 676.046 -15.0822 685.479 -15.0822 685.479C-15.0822 685.479 -16.6622 683.316 -18.9922 681.053V909.455C-18.7322 909.455 -18.4722 909.455 -18.2122 909.475C-14.1122 909.745 -10.8722 912.499 -11.9522 913.48C-12.7622 914.211 -17.1122 914.652 -18.9922 916.254V919.218C-15.9722 920.42 -6.01219 916.684 -6.01219 916.684C-6.01219 916.684 -5.79219 924.345 -1.26219 923.624C3.27781 922.913 5.53781 917.486 5.53781 917.486C5.53781 917.486 5.78782 926.918 17.2378 925.026C28.6878 923.123 23.3578 914.642 23.3578 914.642C23.3578 914.642 29.6878 919.628 34.8078 917.966C39.9178 916.304 40.9278 908.764 40.9278 908.764L367.168 925.276C367.168 925.276 405.678 919.088 412.588 914.341C419.498 909.595 403.878 906.451 403.878 906.451C403.878 906.451 426.558 902.715 422.018 899.151C417.478 895.586 409.278 895.055 409.278 895.055C409.278 895.055 413.488 893.012 413.378 891.049C413.268 889.087 411.438 888.346 407.838 888.226C406.788 888.196 406.168 888.176 405.818 888.176C406.608 887.875 410.858 886.103 410.858 882.768C410.858 880.195 405.858 880.004 402.848 880.115C406.528 879.714 413.108 878.292 408.838 873.265C403.078 866.496 390.698 875.999 390.698 875.999C390.698 875.999 393.148 868.048 388.968 865.905C387.038 864.914 385.078 865.054 383.528 865.475C387.278 863.662 392.968 860.498 391.338 858.545C388.958 855.701 382.268 856.052 382.268 856.052L388.318 852.487C388.318 852.487 394.578 859.967 396.958 856.943C399.338 853.919 393.938 850.354 393.938 850.354C393.938 850.354 411.858 859.256 412.938 855.872C414.018 852.487 409.698 844.296 409.698 844.296C409.698 844.296 426.328 854.089 433.018 850.354C439.708 846.619 433.018 838.778 433.018 838.778C433.018 838.778 447.488 850.534 454.398 847.68C461.308 844.837 457.858 835.394 457.858 835.394C457.858 835.394 465.848 844.296 468.008 840.911C469.328 838.838 469.438 836.365 469.318 834.763C469.738 835.904 470.898 836.956 474.048 835.394C479.448 832.72 477.288 825.6 477.288 825.6C477.288 825.6 475.058 820.914 470.448 820.914H465.898C469.668 820.814 477.648 820.023 477.708 815.216C477.788 808.928 463.528 806.074 463.528 806.074C463.528 806.074 489.158 802.278 483.968 794.207C478.788 786.136 466.688 791.834 466.688 791.834C466.688 791.834 469.278 789.221 466.108 787.558C463.668 786.277 461.758 786.267 460.998 786.327C462.928 786.076 472.028 784.684 470.998 780.439C470.138 776.884 466.198 777.365 464.288 777.825C470.458 775.983 501.308 766.259 491.448 758.118L491.468 758.098Z" fill="#06486A"/>
<path d="M1416.28 935.491C1416.28 935.491 1421.8 928.842 1418.38 929.082C1414.96 929.322 1411.54 935.491 1411.54 935.491C1411.54 935.491 1413.91 927.89 1409.96 930.504C1406.01 933.117 1405.22 935.491 1405.22 935.491H1401.8C1401.8 935.491 1409.17 926.949 1403.38 927.66C1397.59 928.371 1393.12 933.598 1393.12 933.598C1393.12 933.598 1394.7 929.092 1391.28 929.563C1387.86 930.033 1385.23 933.838 1385.23 933.838C1385.23 933.838 1387.07 914.372 1380.76 918.648C1374.45 922.924 1377.87 930.754 1377.87 930.754C1377.87 930.754 1371.82 922.543 1369.45 926.769C1367.08 930.995 1371.03 932.657 1371.03 932.657C1371.03 932.657 1362.09 930.524 1362.61 933.368C1363.14 936.212 1365.24 937.403 1365.24 937.403L1358.93 939.306C1358.93 939.306 1355.51 935.03 1352.35 933.848C1349.19 932.657 1348.4 936.692 1348.4 936.692L1352.87 939.306C1352.87 939.306 1348.92 936.222 1345.24 937.173C1341.56 938.124 1341.03 939.306 1341.03 939.306L1337.61 941.439C1337.61 941.439 1336.36 934.61 1333.7 933.638C1331.04 932.667 1330.74 936.843 1330.74 936.843C1330.74 936.843 1327.19 934.169 1323.44 934.439C1319.69 934.71 1316.73 937.463 1317.72 938.445C1318.71 939.426 1325.42 939.867 1324.92 943.251C1324.43 946.636 1312.29 941.649 1312.29 941.649C1312.29 941.649 1312.09 949.31 1307.95 948.589C1303.81 947.878 1301.73 942.45 1301.73 942.45C1301.73 942.45 1301.5 951.883 1291.04 949.99C1280.58 948.088 1285.45 939.606 1285.45 939.606C1285.45 939.606 1279.66 944.593 1274.99 942.931C1270.32 941.269 1269.4 933.728 1269.4 933.728L971.331 950.241C971.331 950.241 936.141 944.052 929.831 939.306C923.521 934.559 937.791 931.415 937.791 931.415C937.791 931.415 917.071 927.68 921.221 924.115C925.361 920.55 932.861 920.02 932.861 920.02C932.861 920.02 929.011 917.977 929.111 916.014C929.211 914.052 930.891 913.31 934.171 913.19C937.461 913.07 936.141 913.19 936.141 913.19C936.141 913.19 931.401 911.408 931.401 907.733C931.401 904.058 940.741 905.24 940.741 905.24C940.741 905.24 927.981 904.999 933.241 898.24C938.501 891.481 949.811 900.974 949.811 900.974C949.811 900.974 947.571 893.023 951.391 890.88C955.201 888.747 959.151 891.831 959.151 891.831C959.151 891.831 947.051 886.374 949.221 883.52C951.391 880.676 957.511 881.026 957.511 881.026L951.991 877.462C951.991 877.462 946.271 884.942 944.101 881.918C941.931 878.894 946.861 875.329 946.861 875.329C946.861 875.329 930.481 884.231 929.501 880.846C928.511 877.462 932.461 869.27 932.461 869.27C932.461 869.27 917.271 879.064 911.151 875.329C905.031 871.594 911.151 863.753 911.151 863.753C911.151 863.753 897.931 875.509 891.621 872.655C885.311 869.811 888.461 860.368 888.461 860.368C888.461 860.368 881.161 869.27 879.191 865.886C877.221 862.501 878.201 858.055 878.201 858.055C878.201 858.055 878.591 863.042 873.661 860.368C868.731 857.695 870.701 850.575 870.701 850.575C870.701 850.575 872.741 845.889 876.951 845.889C881.161 845.889 882.871 845.889 882.871 845.889C882.871 845.889 870.381 846.479 870.311 840.191C870.241 833.902 883.261 831.048 883.261 831.048C883.261 831.048 859.851 827.253 864.581 819.182C869.321 811.111 880.361 816.809 880.361 816.809C880.361 816.809 877.991 814.195 880.891 812.533C883.781 810.871 885.891 811.341 885.891 811.341C885.891 811.341 875.371 810.15 876.421 805.403C877.471 800.657 883.521 803.1 883.521 803.1C883.521 803.1 847.741 792.115 857.741 783.093C867.741 774.071 874.841 781.901 874.841 781.901C874.841 781.901 864.581 774.541 866.681 773.119C868.781 771.697 873.261 773.119 873.261 773.119C873.261 773.119 869.311 765.759 870.631 763.857C871.951 761.954 870.101 762.665 872.471 761.243C874.841 759.821 880.891 762.194 880.891 762.194L875.891 752.701C875.891 752.701 874.311 752.231 877.211 751.039C880.101 749.848 889.051 753.172 889.051 753.172C889.051 753.172 868.791 752.932 874.841 742.488C880.891 732.043 892.471 736.079 892.471 736.079C892.471 736.079 888.521 736.319 889.051 732.514C889.581 728.719 892.471 730.141 892.471 730.141C892.471 730.141 872.211 730.611 876.951 720.407C881.691 710.203 893.521 706.168 893.521 706.168C893.521 706.168 900.291 704.385 904.831 704.746C909.371 705.106 910.161 705.457 910.161 705.457C910.161 705.457 906.211 697.086 910.551 695.664C914.891 694.242 923.381 702.433 923.381 702.433C923.381 702.433 920.621 689.796 926.141 689.435C931.661 689.075 937.391 693.531 937.391 693.531C937.391 693.531 936.211 681.604 940.941 681.604C945.681 681.604 955.741 690.687 955.741 690.687C955.741 690.687 952.391 674.124 957.521 671.991C962.651 669.858 977.451 680.894 977.451 680.894C977.451 680.894 967.581 657.211 977.061 654.538C986.531 651.864 999.551 674.305 999.551 674.305C999.551 674.305 996.001 652.224 1003.5 653.476C1011 654.718 1011.59 673.954 1011.59 673.954C1011.59 673.954 1015.34 662.558 1019.68 664.691C1024.02 666.824 1028.95 680.543 1028.95 680.543C1028.95 680.543 1032.11 662.378 1038.42 665.232C1044.73 668.076 1049.67 686.421 1049.67 686.421C1049.67 686.421 1049.67 670.399 1056.97 672.712C1064.27 675.025 1066.24 680.193 1066.24 680.193C1066.24 680.193 1061.5 664.882 1066.44 663.99C1071.37 663.099 1084.79 677.699 1084.79 677.699C1084.79 677.699 1081.44 667.375 1085.58 662.919C1089.72 658.463 1100.58 666.304 1100.58 666.304C1100.58 666.304 1092.29 649.391 1101.37 645.295C1110.45 641.199 1113.6 651.353 1113.6 651.353C1113.6 651.353 1110.25 633.018 1117.94 630.875C1125.64 628.742 1131.16 650.642 1131.16 650.642C1131.16 650.642 1127.41 635.151 1134.12 633.909C1140.83 632.668 1146.95 638.716 1146.95 638.716C1146.95 638.716 1143 621.442 1152.08 619.31C1161.16 617.177 1161.95 628.923 1161.95 628.923C1161.95 628.923 1163.92 613.251 1171.62 611.299C1179.32 609.336 1178.53 624.477 1178.53 624.477C1178.53 624.477 1184.45 609.877 1190.96 614.503C1197.47 619.129 1194.71 635.692 1194.71 635.692C1194.71 635.692 1200.63 627.681 1204.77 629.463C1208.91 631.246 1206.94 640.859 1206.94 640.859C1206.94 640.859 1214.44 629.283 1219.77 630.885C1225.1 632.488 1214.84 649.401 1214.84 649.401C1214.84 649.401 1222.93 644.063 1226.09 648.69C1229.25 653.316 1218.99 663.65 1218.99 663.65C1218.99 663.65 1226.29 652.785 1232.41 655.639C1238.53 658.483 1236.16 665.432 1236.16 665.432C1236.16 665.432 1239.71 657.952 1245.43 659.374C1251.15 660.796 1250.56 667.565 1250.56 667.565C1250.56 667.565 1253.91 649.941 1262 651.894C1270.09 653.857 1271.87 664.361 1271.87 664.361C1271.87 664.361 1277.59 649.23 1287.26 650.292C1296.93 651.363 1292.98 668.276 1292.98 668.276C1292.98 668.276 1297.72 657.772 1304.03 662.218C1310.34 666.674 1294.36 682.155 1294.36 682.155C1294.36 682.155 1302.06 678.951 1306.99 682.686C1311.92 686.421 1297.72 699.249 1297.72 699.249C1297.72 699.249 1312.91 692.84 1319.23 696.935C1325.54 701.031 1320.61 710.464 1320.61 710.464C1320.61 710.464 1328.7 698.357 1334.82 701.381C1340.94 704.406 1336.4 712.957 1336.4 712.957C1336.4 712.957 1342.12 705.297 1348.44 709.042C1354.75 712.777 1344.3 722.04 1344.3 722.04C1344.3 722.04 1357.32 716.342 1363.04 722.4C1368.76 728.458 1355.94 736.82 1355.94 736.82C1355.94 736.82 1367.78 738.242 1366.2 744.12C1364.62 749.998 1351.8 753.913 1351.8 753.913C1351.8 753.913 1360.09 753.382 1361.47 756.226C1362.85 759.07 1359.89 761.744 1359.89 761.744C1359.89 761.744 1370.35 758.359 1373.31 763.877C1376.27 769.394 1363.44 777.766 1363.44 777.766C1363.44 777.766 1374.09 769.224 1381.79 770.826C1389.49 772.428 1382.58 784.535 1382.58 784.535C1382.58 784.535 1389.49 769.935 1398.17 772.609C1406.85 775.282 1398.96 794.148 1398.96 794.148C1398.96 794.148 1404.29 788.27 1410.8 790.583C1417.31 792.896 1409.22 806.785 1409.22 806.785C1409.22 806.785 1417.51 804.292 1421.26 805.714C1425.01 807.136 1416.33 935.511 1416.33 935.511L1416.28 935.491Z" fill="#06486A"/>
<path d="M1211.48 185.01C1211.48 185.01 1199.33 208.363 1196.79 216.194C1194.11 224.465 1193.69 229.763 1193.69 238.034C1193.69 246.306 1197.64 263.059 1197.64 263.059L1197.85 334.74C1197.85 334.74 1193.19 343.011 1193.19 354.888C1193.19 366.765 1193.61 376.729 1198.27 379.703C1202.93 382.677 1208.66 383.097 1208.66 383.097L1193.19 398.369C1193.19 398.369 1190.51 401.333 1193.19 404.097C1194.86 405.819 1202.3 406.22 1202.3 406.22C1202.3 406.22 1196.82 412.158 1201.36 414.912C1205.91 417.666 1210.29 411.948 1210.29 411.948C1210.29 411.948 1210.15 418.737 1215.87 418.096C1221.59 417.456 1220.74 411.307 1220.74 411.307C1220.74 411.307 1234.09 393.492 1233.88 390.948C1233.67 388.405 1233.04 381.615 1233.88 380.774C1234.72 379.933 1238.54 377.81 1239.17 376.528C1239.8 375.246 1238.11 365.072 1238.11 365.072C1238.11 365.072 1248.27 399.21 1241.07 410.245C1233.87 421.271 1226.24 430.183 1223.27 438.665C1220.31 447.147 1221.15 463.26 1227.93 468.988C1234.72 474.716 1245.94 468.988 1247 468.136C1248.06 467.285 1264.37 461.137 1267.13 420.209C1269.88 379.282 1261.84 362.529 1261.84 362.529C1261.84 362.529 1265.86 386.072 1270.52 387.554L1275.18 389.036C1275.18 389.036 1272 398.789 1273.91 401.543C1275.82 404.297 1284.71 413.84 1284.71 413.84C1284.71 413.84 1281.32 425.296 1287.04 425.717C1292.77 426.138 1294.89 418.297 1294.89 418.297C1294.89 418.297 1296.16 424.105 1300.18 421.942C1304.2 419.779 1303.14 416.174 1303.14 416.174C1303.14 416.174 1308.22 421.691 1309.49 416.174C1310.76 410.656 1304.83 403.446 1304.83 403.446C1304.83 403.446 1299.32 400.261 1298.69 398.148C1298.05 396.025 1297.63 391.149 1298.05 388.395C1298.47 385.641 1305.46 380.123 1299.96 364.431C1294.45 348.739 1287.88 348.95 1288.3 338.775C1288.72 328.601 1290.21 329.653 1283.43 308.663C1276.65 287.674 1275.17 286.823 1274.96 272.823C1274.75 258.823 1274.75 255.218 1274.75 255.218L1286.61 246.947L1267.13 232.947L1273.48 224.145L1258.65 215.663C1258.65 215.663 1253.42 197.748 1251.06 193.292C1248.7 188.835 1245.94 185.01 1245.94 185.01H1234L1237.26 244.183L1217.77 228.701L1214.1 236.122C1214.1 236.122 1213.75 219.578 1218.41 209.614C1223.07 199.651 1229.7 185 1229.7 185H1211.49L1211.48 185.01Z" fill="white" stroke="black" stroke-width="3" stroke-miterlimit="10"/>
<path d="M1234.49 249.08C1244.02 249.08 1251.75 241.467 1251.75 232.076C1251.75 222.685 1244.02 215.072 1234.49 215.072C1224.96 215.072 1217.24 222.685 1217.24 232.076C1217.24 241.467 1224.96 249.08 1234.49 249.08Z" fill="white" stroke="black" stroke-width="2" stroke-miterlimit="10"/>
<path d="M1250.68 261.508C1258.93 261.508 1265.61 254.917 1265.61 246.787C1265.61 238.657 1258.93 232.066 1250.68 232.066C1242.43 232.066 1235.74 238.657 1235.74 246.787C1235.74 254.917 1242.43 261.508 1250.68 261.508Z" fill="white" stroke="black" stroke-width="2" stroke-miterlimit="10"/>
<path d="M1233.26 236.521C1234.63 236.521 1235.74 235.428 1235.74 234.078C1235.74 232.729 1234.63 231.635 1233.26 231.635C1231.89 231.635 1230.78 232.729 1230.78 234.078C1230.78 235.428 1231.89 236.521 1233.26 236.521Z" fill="black"/>
<path d="M1250.68 250.562C1252.05 250.562 1253.16 249.469 1253.16 248.119C1253.16 246.77 1252.05 245.676 1250.68 245.676C1249.31 245.676 1248.2 246.77 1248.2 248.119C1248.2 249.469 1249.31 250.562 1250.68 250.562Z" fill="black"/>
<path d="M1231.52 248.448C1230.25 249.459 1228.62 249.899 1227.08 250.28C1225.54 250.661 1223.85 251.031 1222.33 251.732C1222.03 251.872 1221.94 252.323 1222.11 252.593C1223.07 254.125 1224.14 255.587 1225.3 256.969C1225.82 257.59 1226.7 256.699 1226.18 256.088C1225.08 254.786 1224.08 253.404 1223.18 251.962L1222.96 252.823C1226.03 251.392 1229.66 251.522 1232.41 249.339C1233.04 248.838 1232.15 247.957 1231.53 248.458L1231.52 248.448Z" fill="black"/>
<path d="M1214.85 252.793C1213.83 244.992 1213.31 237.111 1214.16 229.27C1215.06 221.018 1217.51 213.037 1220.67 205.397C1223.07 199.598 1225.87 193.981 1228.81 188.443C1229.19 187.732 1228.11 187.101 1227.73 187.812C1222.99 196.734 1218.54 205.947 1215.67 215.671C1213.44 223.232 1212.36 231.042 1212.48 238.923C1212.55 243.57 1213 248.197 1213.6 252.803C1213.7 253.594 1214.95 253.604 1214.85 252.803V252.793Z" fill="black"/>
<path d="M1238.23 303.763C1240.03 303.303 1241.83 302.912 1243.65 302.602C1244.55 302.442 1245.46 302.301 1246.37 302.191C1246.75 302.141 1247.17 302.041 1247.54 302.091C1247.65 302.101 1247.77 302.171 1247.88 302.181C1247.92 302.201 1247.96 302.221 1248 302.251C1248 302.141 1247.98 302.111 1247.95 302.181C1247.68 302.942 1248.89 303.273 1249.16 302.512C1249.45 301.701 1248.76 301.1 1248.04 300.91C1247.06 300.649 1245.9 300.99 1244.92 301.14C1242.56 301.49 1240.23 301.971 1237.91 302.562C1237.13 302.762 1237.46 303.974 1238.24 303.773L1238.23 303.763Z" fill="black"/>
<path d="M1233.78 312.487C1240.27 311.846 1246.75 311.205 1253.24 310.564C1254.03 310.484 1254.04 309.232 1253.24 309.312C1246.75 309.953 1240.27 310.594 1233.78 311.235C1232.99 311.315 1232.98 312.567 1233.78 312.487Z" fill="black"/>
<path d="M1208.92 397.245C1207.05 398.767 1205.65 401.371 1206.62 403.784C1207.48 405.957 1209.79 407.309 1212.08 407.309C1214.37 407.309 1216.32 405.837 1217.14 403.704C1217.96 401.571 1217.48 399.218 1215.76 397.816C1213.94 396.334 1211.09 395.853 1209.04 397.155C1208.36 397.586 1208.99 398.667 1209.67 398.236C1211.09 397.335 1213.01 397.545 1214.41 398.387C1215.89 399.268 1216.53 400.93 1216.16 402.602C1215.79 404.275 1214.5 405.747 1212.73 406.017C1210.96 406.287 1209.03 405.466 1208.08 403.954C1206.78 401.871 1208.1 399.508 1209.79 398.136C1210.41 397.626 1209.53 396.744 1208.91 397.255L1208.92 397.245Z" fill="black"/>
<path d="M1291.77 405.146C1290.07 405.076 1288.08 405.206 1286.7 406.328C1285.11 407.62 1285.32 409.993 1286.78 411.305C1288.53 412.877 1291.29 412.687 1293.33 411.845C1295.26 411.054 1297.35 409.422 1296.97 407.079C1296.59 404.736 1293.73 403.464 1291.73 404.876C1291.08 405.336 1291.7 406.418 1292.36 405.957C1293.66 405.046 1295.46 405.667 1295.75 407.279C1296.04 408.891 1294.25 410.123 1292.93 410.674C1291.41 411.305 1289.33 411.595 1287.89 410.594C1286.77 409.813 1286.4 408.16 1287.56 407.249C1288.73 406.338 1290.42 406.348 1291.78 406.408C1292.58 406.438 1292.58 405.186 1291.78 405.156L1291.77 405.146Z" fill="black"/>
<path d="M1236.12 214.573C1236.12 214.573 1239.86 213.191 1248.2 213.581C1253.43 213.822 1259.45 216.115 1259.45 216.115" stroke="black" stroke-width="2" stroke-miterlimit="10"/>
</svg>
