<svg width="393" height="1486" viewBox="0 0 393 1486" fill="none" xmlns="http://www.w3.org/2000/svg">
<path d="M6.97266 8.7666V274.465" stroke="black" stroke-width="3" stroke-miterlimit="10"/>
<path d="M6.97266 32.0764C6.97266 32.0764 209.236 27.091 248.569 28.3574C287.901 29.6238 346.203 32.5092 376.714 32.0764C407.226 31.6436 415.582 26.4338 446.318 25.985C477.054 25.5361 893.348 32.0764 893.348 32.0764" stroke="black" stroke-width="3" stroke-miterlimit="10"/>
<path d="M32.282 200.021C32.282 200.021 25.8466 204.093 25.4944 212.236C25.1422 220.38 25.4944 251.959 25.4944 251.959" stroke="black" stroke-width="3" stroke-miterlimit="10"/>
<path d="M37.0312 211.901V225.992" stroke="black" stroke-width="3" stroke-miterlimit="10"/>
<path d="M84.8398 263.5L99.0712 274.465" stroke="black" stroke-width="3" stroke-miterlimit="10"/>
<path d="M238.848 98.8555C238.848 98.8555 249.701 109.724 263.708 113.571C277.716 117.418 286.76 116.056 286.76 116.056" stroke="black" stroke-width="3" stroke-miterlimit="10"/>
<path d="M169.697 81.2061C169.697 81.2061 218.971 118.316 232.53 124.664C246.088 130.995 272.758 130.995 272.758 130.995" stroke="black" stroke-width="3" stroke-miterlimit="10"/>
<path d="M18.7227 171.276C18.7227 171.276 18.7227 191.651 182.343 191.186C345.963 190.721 370.391 185.158 378.507 184.389C389.057 183.411 396.789 181.856 401.079 182.93C408.171 184.71 414.67 185.303 420.993 183.924C433.416 181.215 439.979 173.056 439.979 173.056" stroke="black" stroke-width="3" stroke-miterlimit="10"/>
<path d="M16.6895 1128.77C16.6895 1128.77 27.3189 1147.11 136.687 1149.82C246.071 1152.53 307.719 1148.79 329.922 1146.42C352.126 1144.05 378.395 1137.94 391.282 1140.65C404.168 1143.36 405.865 1146.42 415.694 1144.72C425.523 1143.02 439.931 1128.77 439.931 1128.77" stroke="black" stroke-width="3" stroke-miterlimit="10"/>
<path d="M7.88477 1128.77V1483.18" stroke="black" stroke-width="3" stroke-miterlimit="10"/>
<path d="M34.3313 1162.72C34.3313 1162.72 22.133 1160.01 22.8054 1184.44C23.4777 1208.89 22.7734 1223.81 22.7734 1223.81" stroke="black" stroke-width="3" stroke-miterlimit="10"/>
<path d="M39.7406 1172.9C39.7406 1172.9 35.3384 1175.97 35.6746 1181.38C36.0107 1186.8 35.6585 1190.55 35.6585 1190.55" stroke="black" stroke-width="3" stroke-miterlimit="10"/>
<path d="M85.8477 1230.61C85.8477 1230.61 100.431 1245.55 112.966 1255.39C125.5 1265.23 137.042 1268.97 137.042 1268.97" stroke="black" stroke-width="3" stroke-miterlimit="10"/>
<path d="M96.0273 1258.12C96.0273 1258.12 121.112 1290.7 163.822 1295.11C206.532 1299.52 241.798 1290.37 241.798 1290.37" stroke="black" stroke-width="3" stroke-miterlimit="10"/>
<path d="M407.561 1261.85C407.561 1261.85 396.371 1275.09 388.911 1281.87C381.451 1288.65 365.859 1298.51 365.859 1298.51" stroke="black" stroke-width="3" stroke-miterlimit="10"/>
<path d="M16.6895 1324.64C16.6895 1324.64 20.0833 1337.21 45.1681 1337.21C70.253 1337.21 168.56 1329.74 205.17 1329.4C241.781 1329.07 423.714 1330.65 431.174 1329.4C438.634 1328.15 439.931 1322.27 439.931 1322.27" stroke="black" stroke-width="3" stroke-miterlimit="10"/>
<path d="M95.3398 1418.9L108.227 1433.61" stroke="black" stroke-width="3" stroke-miterlimit="10"/>
<path d="M85.8477 1429.32L114.102 1467.57" stroke="black" stroke-width="3" stroke-miterlimit="10"/>
<path d="M287.211 1450.81C287.211 1450.81 329.024 1431.58 347.546 1420.93C366.083 1410.29 378.73 1398.99 378.73 1398.99" stroke="black" stroke-width="3" stroke-miterlimit="10"/>
<path d="M335.57 1447.19L378.745 1424.89" stroke="black" stroke-width="3" stroke-miterlimit="10"/>
</svg>
