<svg width="24" height="24" viewBox="0 0 24 24" fill="none" xmlns="http://www.w3.org/2000/svg">
<g clip-path="url(#clip0_413_3234)">
<path d="M16.254 7.74603C15.1746 6.66667 13.6508 5.96825 12 5.96825C10.3492 5.96825 8.8254 6.63492 7.74603 7.74603C6.66667 8.8254 5.96825 10.3492 5.96825 12C5.96825 13.6508 6.66667 15.1746 7.74603 16.254C8.8254 17.3333 10.3492 18.0317 12 18.0317C13.6508 18.0317 15.1746 17.3651 16.254 16.254C17.3333 15.1746 18.0317 13.6508 18.0317 12C18.0317 10.3492 17.3651 8.8254 16.254 7.74603ZM12 4.09524C12.4444 4.09524 12.8254 3.71429 12.8254 3.26984V0.825397C12.8254 0.380952 12.4444 0 12 0C11.5556 0 11.1746 0.380952 11.1746 0.825397V3.26984C11.1746 3.71429 11.5556 4.09524 12 4.09524ZM18.7619 6.4127L20.5079 4.66667C20.8254 4.34921 20.8254 3.84127 20.5079 3.52381C20.1905 3.20635 19.6825 3.20635 19.3651 3.52381L17.619 5.26984C17.3016 5.5873 17.3016 6.09524 17.619 6.4127C17.9048 6.73016 18.4127 6.73016 18.7619 6.4127ZM23.1746 11.1746H20.7302C20.2857 11.1746 19.9048 11.5556 19.9048 12C19.9048 12.4444 20.2857 12.8254 20.7302 12.8254H23.1746C23.619 12.8254 24 12.4444 24 12C24 11.5556 23.619 11.1746 23.1746 11.1746ZM18.7302 17.5873C18.4127 17.2698 17.9048 17.2698 17.5873 17.5873C17.2698 17.9048 17.2698 18.4127 17.5873 18.7302L19.3333 20.4762C19.6508 20.7936 20.1587 20.7936 20.4762 20.4762C20.7936 20.1587 20.7936 19.6508 20.4762 19.3333L18.7302 17.5873ZM12 19.9048C11.5556 19.9048 11.1746 20.2857 11.1746 20.7302V23.1746C11.1746 23.619 11.5556 24 12 24C12.4444 24 12.8254 23.619 12.8254 23.1746V20.7302C12.8254 20.2857 12.4444 19.9048 12 19.9048ZM5.23809 17.5873L3.49206 19.3333C3.1746 19.6508 3.1746 20.1587 3.49206 20.4762C3.80952 20.7936 4.31746 20.7936 4.63492 20.4762L6.38095 18.7302C6.69841 18.4127 6.69841 17.9048 6.38095 17.5873C6.09524 17.2698 5.5873 17.2698 5.23809 17.5873ZM4.09524 12C4.09524 11.5556 3.71429 11.1746 3.26984 11.1746H0.825397C0.380952 11.1746 0 11.5556 0 12C0 12.4444 0.380952 12.8254 0.825397 12.8254H3.26984C3.71429 12.8254 4.09524 12.4444 4.09524 12ZM5.23809 6.4127C5.55556 6.73016 6.06349 6.73016 6.38095 6.4127C6.69841 6.09524 6.69841 5.5873 6.38095 5.26984L4.63492 3.52381C4.31746 3.20635 3.80952 3.20635 3.49206 3.52381C3.1746 3.84127 3.1746 4.34921 3.49206 4.66667L5.23809 6.4127Z" fill="white"/>
</g>
<defs>
<clipPath id="clip0_413_3234">
<rect width="24" height="24" fill="white"/>
</clipPath>
</defs>
</svg>
