<svg width="1377" height="966" viewBox="0 0 1377 966" fill="none" xmlns="http://www.w3.org/2000/svg">
<path d="M-69.1793 4.68743C-69.1793 4.68743 -28.9925 0.15711 6.04945 1.28969C41.0914 2.42226 340.094 9.21774 368.36 4.68743C396.626 0.157124 461.055 1.52021 465.579 3.66509C470.103 5.81999 474.627 10.9116 474.627 10.9116C474.627 10.9116 545.142 8.64645 612.543 8.64645C679.945 8.64645 896.142 4.64735 934.297 6.01045C972.452 7.37355 1054.69 3.37445 1133.12 6.01045C1211.55 8.64645 1275.98 -0.0633849 1305.23 1.10928C1334.47 2.28195 1342.95 5.96035 1342.95 5.96035V937.45L-70 925.192L-69.1893 4.68743H-69.1793Z" fill="#02304F" stroke="black" stroke-miterlimit="10"/>
<path d="M1372.14 964.511H1342.95V7.37293C1342.95 4.326 1345.91 4.54649 1345.91 4.54649H1375.43L1372.14 964.511Z" fill="#02304F" stroke="black" stroke-miterlimit="10"/>
<path d="M391.376 116.473C391.296 116.643 391.216 116.813 391.116 116.984C389.404 119.9 386.852 121.284 383.469 121.123C382.268 121.073 381.287 120.662 380.546 120.051C378.975 120.652 377.434 121.324 376.303 121.514C372.119 122.196 367.765 122.186 363.541 122.196C354.322 122.196 345.114 121.514 335.896 121.765C327.758 121.985 319.651 122.677 311.513 122.847C303.116 123.028 295.028 121.935 286.691 121.233C270.306 119.85 253.831 120.532 237.436 121.043C220.46 121.574 203.465 122.166 186.479 121.945C178.432 121.845 170.485 121.213 162.477 120.562C156.001 120.041 149.996 120.923 143.88 118.187C142.909 117.756 142.259 117.154 141.848 116.473H130.578V138.122H405.839V116.473H391.396H391.376Z" fill="#06486A"/>
<path d="M119.821 116.473H101.504C103.866 119.028 103.766 123.719 99.4824 124.421C91.9855 125.644 85.2794 123.609 78.0027 122.025C69.4149 120.161 60.4167 119.77 51.6487 119.77C33.9926 119.77 16.2864 120.161 -1.37975 120.321C-14.6819 120.442 -27.964 122.075 -41.2161 123.048C-47.4318 123.499 -57.501 123.028 -59.0924 116.473H-69.4219V138.122H119.821V116.473Z" fill="#06486A"/>
<path d="M703.927 116.473C702.165 116.894 700.464 117.876 698.762 118.407C697.772 118.708 696.881 118.708 696.1 118.497C694.749 118.918 693.377 119.309 691.976 119.58C688.423 120.261 684.85 120.382 681.246 120.362C672.348 120.291 663.48 120.432 654.592 120.823C636.415 121.624 618.449 122.567 600.252 122.166C566.952 121.444 532.661 125.754 500.011 117.274C499.33 117.094 498.77 116.823 498.289 116.473H471.945V138.122H746.926V116.473H703.927Z" fill="#06486A"/>
<path d="M1038.73 116.473C1037.91 117.615 1036.61 118.457 1034.89 118.577C1027.8 119.099 1020.85 118.006 1013.85 117.244C1013.55 117.264 1013.24 117.285 1012.94 117.295C1005.57 117.726 998.175 118.467 990.798 118.577C989.637 118.597 988.696 118.277 987.955 117.746C985.413 117.996 982.871 118.237 980.338 118.377C946.267 120.341 912.156 118.106 878.075 117.555C844.344 117.014 810.593 117.715 776.863 117.726C775.441 117.726 774.35 117.234 773.56 116.473H763.32V138.122H1052.14V116.473H1038.72H1038.73Z" fill="#06486A"/>
<path d="M1335.2 119.96C1328.5 121.243 1322.21 124.651 1315.19 124.36C1312.04 124.23 1309.87 123.438 1307.14 122.055C1305.7 121.323 1305.24 120.782 1303.55 120.692C1301.69 120.592 1299.8 120.692 1297.94 120.682C1282.25 120.542 1266.69 120.612 1251 121.213C1235.16 121.825 1219.32 122.055 1203.47 122.125C1196.15 122.155 1188.83 122.456 1181.53 121.764C1175.93 121.233 1170.09 120.742 1165.24 117.635C1164.71 117.294 1164.28 116.903 1163.94 116.482H1158.25C1150.9 118.156 1143.44 119.068 1135.97 120.121C1127.35 121.343 1118.79 122.967 1110.12 123.749C1101.69 124.511 1092.92 124.751 1084.56 123.178C1079.7 122.266 1073.26 120.622 1070.09 116.482H1065.88V138.132H1338.31V117.805C1337.78 118.848 1336.78 119.67 1335.22 119.97L1335.2 119.96Z" fill="#06486A"/>
<path d="M375.114 22.7277C369.399 22.2567 363.644 22.2066 357.948 21.505C352.383 20.8234 347.028 19.2498 341.393 19.2398C340.162 19.2398 339.181 18.8589 338.421 18.2676H-69.1817L-69.4219 32.951H405.812L404.671 23.7801C394.942 24.8425 384.763 23.5095 375.114 22.7177V22.7277Z" fill="#06486A"/>
<path d="M750.187 19.0703L472.073 22.9291L471.633 32.9619H750.187V19.0703Z" fill="#06486A"/>
<path d="M1052.15 21.0341L761.75 19.4004L763.321 32.9613H1052.15V21.0341Z" fill="#06486A"/>
<path d="M1064.71 22.9588L1065.82 32.9616H1342.93L1342.63 22.127L1064.71 22.9588Z" fill="#06486A"/>
<path d="M102.578 17.707V118.136C103.179 119.539 103.239 121.132 102.578 122.375V179.585H118.403V17.707H102.578Z" fill="#06486A"/>
<path d="M393.801 22.3783V112.704C394.301 113.836 394.371 115.129 393.801 116.432V182.423H408.214V22.248L393.801 22.3884V22.3783Z" fill="#06486A"/>
<path d="M750.887 25.6348H739.016V184.677H750.887V25.6348Z" fill="#06486A"/>
<path d="M1052.15 22.1367H1040.28V178.452H1052.15V22.1367Z" fill="#06486A"/>
<path d="M1343.38 689.967L1326.84 682.329V22.137L1342.64 22.127L1343.38 689.967Z" fill="#06486A"/>
<path d="M1326.85 426.779H1240.09V443.337H1326.85V426.779Z" fill="#06486A"/>
<path d="M1328.69 541.39H1240.09V526.957L1289.32 522.678L1326.85 525.053L1328.69 541.39Z" fill="#06486A"/>
<path d="M1331.23 337.635H1240.08L1240.14 324.264L1299.83 320.285L1329.64 321.147L1331.23 337.635Z" fill="#06486A"/>
<path d="M1327.54 227.584L1323.87 226.973C1323.09 227.764 1322 228.306 1320.61 228.376C1315.41 228.646 1310 227.504 1306.06 224.006L1295.96 222.332L1240.09 223.224V239.571H1329.11L1327.54 227.584Z" fill="#06486A"/>
<path d="M893.326 696.904H451.883V708.791H893.326V696.904Z" fill="#06486A"/>
<path d="M749.748 718.412H735.055V933.492H749.748V718.412Z" fill="#06486A"/>
<path d="M541.258 834.436C539.646 834.596 538.035 834.757 536.423 834.897C530.448 835.418 524.472 835.859 518.467 835.969C512.842 836.08 507.006 835.819 501.451 836.891C494.325 838.275 486.528 841.211 480.862 834.807C480.752 834.686 480.652 834.556 480.562 834.426H474.477V851.976H735.045V834.426H541.248L541.258 834.436Z" fill="#06486A"/>
<path d="M741.558 708.639C741.338 709.241 741.008 709.812 740.497 710.293C738.546 712.147 736.424 713.51 734.172 714.513C732.981 715.535 731.749 716.507 730.128 716.938C728.156 717.469 726.154 717.409 724.263 716.848C714.894 717.56 704.625 715.184 695.827 715.184C687.139 715.184 679.201 717.85 670.754 719.424C661.926 721.078 652.907 720.456 643.979 720.236C641.457 720.176 638.925 720.105 636.402 720.045C629.636 720.115 622.88 720.045 616.114 719.985C615.944 719.985 615.763 719.985 615.593 719.985C606.685 720.256 597.827 721.118 588.909 721.098C585.035 721.098 581.172 720.937 577.318 720.707C567.69 721.037 558.061 721.338 548.412 721.338C538.763 721.338 525.611 723.192 516.753 717.79C515.922 717.73 515.092 717.68 514.261 717.62C509.046 717.209 504.031 716.527 498.997 715.094C493.762 713.611 488.727 711.857 483.222 711.997C480.67 712.067 479.149 710.513 478.648 708.619H472.633L474.484 738.196H749.746L750.987 708.619H741.548L741.558 708.639Z" fill="#06486A"/>
<path d="M76.5714 531.066H-69.4219V546.912H76.5714V531.066Z" fill="#06486A"/>
<path d="M27.957 425.686C12.0425 425.856 -3.87202 426.388 -19.7966 426.468C-28.4645 426.508 -37.1624 426.197 -45.8203 426.478C-51.1652 426.648 -54.8686 425.977 -56.9805 421.547L-69.4219 420.945V446.173H76.5714V428.061L27.957 425.696V425.686Z" fill="#06486A"/>
<path d="M27.947 632.026C12.0325 632.196 -3.75191 631.876 -19.6765 631.956C-28.3444 631.996 -37.0223 632.096 -45.6802 632.377C-51.0251 632.547 -56.42 632.798 -57.9014 627.285L-69.4219 626.293V650.177H76.5714V632.066L27.937 632.016L27.947 632.026Z" fill="#06486A"/>
<path d="M77.9827 329.006H-69.4219V343.719H77.9827V329.006Z" fill="#06486A"/>
<path d="M79.8244 243.403H-69.4219V224.299C-66.7594 220.02 -60.9942 218.977 -57.0005 222.044L-54.0578 224.299H79.8244V243.403Z" fill="#06486A"/>
<path d="M-69.1797 18.2676H305.052C305.052 18.2676 348.151 19.4002 366.979 21.5952C383.414 23.5095 409.057 22.7979 409.057 22.7979" fill="#02304F"/>
<path d="M-69.1797 18.2676H305.052C305.052 18.2676 348.151 19.4002 366.979 21.5952C383.414 23.5095 409.057 22.7979 409.057 22.7979" stroke="black" stroke-width="3" stroke-miterlimit="10"/>
<path d="M54.0938 59.873C54.0938 59.873 67.0956 70.7678 72.7508 74.5865C78.406 78.4052 92.3887 82.9355 92.3887 82.9355" stroke="black" stroke-width="3" stroke-miterlimit="10"/>
<path d="M77.7656 68.502C77.7656 68.502 79.4572 71.0478 83.2807 72.5311C87.0942 74.0145 90.4872 75.0769 90.4872 75.0769" stroke="black" stroke-width="3" stroke-miterlimit="10"/>
<path d="M119.664 18.2676V173.922" stroke="black" stroke-width="3" stroke-miterlimit="10"/>
<path d="M130.684 18.2676V175.616" stroke="black" stroke-width="3" stroke-miterlimit="10"/>
<path d="M147.922 92.4873C147.922 92.4873 172.084 85.4814 184.806 78.2649C197.527 71.0485 209.388 59.873 209.388 59.873" stroke="black" stroke-width="3" stroke-miterlimit="10"/>
<path d="M202.398 96.9479C202.398 96.9479 215.961 89.09 223.167 82.936C230.374 76.782 232.066 75.0781 232.066 75.0781" stroke="black" stroke-width="3" stroke-miterlimit="10"/>
<path d="M223.586 89.5205L233.555 81.873" stroke="black" stroke-width="3" stroke-miterlimit="10"/>
<path d="M-70 116.753C-70 116.753 -63.2538 109.958 -62.2329 113.356C-61.212 116.753 -57.8189 121.564 -53.8653 122.126C-49.9117 122.687 12.2651 120.141 37.9786 120.432C63.6921 120.722 74.4319 120.883 80.3673 122.216C86.3027 123.549 86.8632 126.375 96.472 125.533C106.081 124.691 113.147 119.049 113.147 119.049" stroke="black" stroke-width="3" stroke-miterlimit="10"/>
<path d="M-69.1797 169.393C-69.1797 169.393 -47.1596 186.231 -31.5353 192.886C-8.92467 202.508 12.2647 205.625 12.2647 205.625" stroke="black" stroke-width="3" stroke-miterlimit="10"/>
<path d="M-69.1797 219.196C-69.1797 219.196 -67.4281 215.798 -63.4645 216.369C-59.5008 216.941 -53.5754 223.726 -53.5754 223.726H68.2258" stroke="black" stroke-width="3" stroke-miterlimit="10"/>
<path d="M-69.1797 422.077C-69.1797 422.077 -67.4281 418.679 -63.4645 419.25C-59.5109 419.812 -53.5754 426.607 -53.5754 426.607H68.2258" stroke="black" stroke-width="3" stroke-miterlimit="10"/>
<path d="M-64.9062 624.981C-59.8516 624.359 -56.8489 629.371 -53.8462 632.377C-12.8087 632.377 27.2279 632.377 68.2253 632.377" stroke="black" stroke-width="3" stroke-miterlimit="10"/>
<path d="M-69.1797 273.82C-69.1797 273.82 -38.4716 292.693 -30.6845 296.742C-15.9911 304.38 10.5731 308.63 10.5731 308.63" stroke="black" stroke-width="3" stroke-miterlimit="10"/>
<path d="M-69.1797 327.021H67.0947" stroke="black" stroke-width="3" stroke-miterlimit="10"/>
<path d="M-63.6016 479.498C-41.8217 497.068 -13.7961 504.084 13.1285 510.408" stroke="black" stroke-width="3" stroke-miterlimit="10"/>
<path d="M136.617 112.412C136.617 112.412 141.141 120.44 149.899 121.002C158.657 121.563 346.879 122.696 346.879 122.696C346.879 122.696 378.878 121.974 389.558 119.047C397.896 116.752 401.429 112.412 401.429 112.412" stroke="black" stroke-width="3" stroke-miterlimit="10"/>
<path d="M256.449 150.721L282.443 140.527" stroke="black" stroke-width="3" stroke-miterlimit="10"/>
<path d="M273.684 150.719L290.639 142.791" stroke="black" stroke-width="3" stroke-miterlimit="10"/>
<path d="M292.051 150.719L299.968 142.791" stroke="black" stroke-width="3" stroke-miterlimit="10"/>
<path d="M355.859 169.111C355.859 169.111 374.516 158.638 381.933 150.72C389.35 142.792 393.384 134.092 393.384 134.092" stroke="black" stroke-width="3" stroke-miterlimit="10"/>
<path d="M372.172 171.238L384.893 156.164" stroke="black" stroke-width="3" stroke-miterlimit="10"/>
<path d="M409.059 19.4004V174.483" stroke="black" stroke-width="3" stroke-miterlimit="10"/>
<path d="M462.758 3.08398V174.484" stroke="black" stroke-width="3" stroke-miterlimit="10"/>
<path d="M472.074 8.35742V174.485" stroke="black" stroke-width="3" stroke-miterlimit="10"/>
<path d="M427.703 57.8887C427.703 57.8887 426.291 63.2609 425.441 69.7757C424.59 76.2805 425.441 79.117 425.441 79.117" stroke="black" stroke-width="3" stroke-miterlimit="10"/>
<path d="M433.081 50.2502C433.081 50.2502 438.446 42.8934 444.671 47.7044C450.887 52.5153 437.044 84.6385 437.044 84.6385L426.395 108.413" stroke="black" stroke-width="3" stroke-miterlimit="10"/>
<path d="M434.07 114.487C434.07 114.487 442.708 97.639 444.81 92.5575C448.483 83.6472 449.895 73.875 449.895 73.875" stroke="black" stroke-width="3" stroke-miterlimit="10"/>
<path d="M418.385 173.571C418.385 173.571 417.114 159.99 418.385 150.438C419.656 140.887 422.409 131.756 422.409 131.756" stroke="black" stroke-width="3" stroke-miterlimit="10"/>
<path d="M472.074 22.9299C472.074 22.9299 598.54 19.8128 623.132 20.6046C647.725 21.3964 684.178 23.2005 703.255 22.9299C722.333 22.6593 727.557 19.4019 746.775 19.1212C765.993 18.8406 1026.28 22.9299 1026.28 22.9299" stroke="black" stroke-width="3" stroke-miterlimit="10"/>
<path d="M751.16 19.4004V173.571" stroke="black" stroke-width="3" stroke-miterlimit="10"/>
<path d="M761.75 19.4004V173.571" stroke="black" stroke-width="3" stroke-miterlimit="10"/>
<path d="M487.9 127.939C487.9 127.939 483.877 130.485 483.656 135.577C483.436 140.668 483.656 160.413 483.656 160.413" stroke="black" stroke-width="3" stroke-miterlimit="10"/>
<path d="M490.871 135.365V144.175" stroke="black" stroke-width="3" stroke-miterlimit="10"/>
<path d="M520.758 167.629L529.656 174.485" stroke="black" stroke-width="3" stroke-miterlimit="10"/>
<path d="M617.055 64.6855C617.055 64.6855 623.841 71.4811 632.599 73.8865C641.357 76.292 647.012 75.4401 647.012 75.4401" stroke="black" stroke-width="3" stroke-miterlimit="10"/>
<path d="M573.82 53.6504C573.82 53.6504 604.628 76.8532 613.106 80.8222C621.584 84.7812 638.259 84.7812 638.259 84.7812" stroke="black" stroke-width="3" stroke-miterlimit="10"/>
<path d="M479.422 109.967C479.422 109.967 479.422 122.706 581.725 122.415C684.029 122.124 699.303 118.647 704.377 118.165C710.973 117.554 715.808 116.582 718.49 117.253C722.924 118.366 726.988 118.737 730.942 117.875C738.709 116.181 742.812 111.079 742.812 111.079" stroke="black" stroke-width="3" stroke-miterlimit="10"/>
<path d="M780.688 29.0215C780.688 29.0215 803.578 32.9805 816.3 33.5518C829.022 34.113 838.911 33.5518 838.911 33.5518" stroke="black" stroke-width="3" stroke-miterlimit="10"/>
<path d="M898.824 86.7552L891.758 75.4395" stroke="black" stroke-width="3" stroke-miterlimit="10"/>
<path d="M960.152 111.101C960.152 111.101 1013.28 111.101 1027.69 100.346C1036.78 93.5607 1036.88 86.4746 1036.88 86.4746" stroke="black" stroke-width="3" stroke-miterlimit="10"/>
<path d="M892.75 63.834L901.648 79.1188" stroke="black" stroke-width="3" stroke-miterlimit="10"/>
<path d="M768.535 113.928C768.535 113.928 774.19 119.45 793.828 118.879C813.466 118.308 1027.12 119.16 1027.12 119.16C1027.12 119.16 1036.17 119.33 1040.97 118.919C1044.71 118.598 1045.22 115.902 1045.22 115.902" stroke="black" stroke-width="3" stroke-miterlimit="10"/>
<path d="M1006.35 147.463L1013.56 155.952" stroke="black" stroke-width="3" stroke-miterlimit="10"/>
<path d="M1002.33 154.889L1013.56 169.111" stroke="black" stroke-width="3" stroke-miterlimit="10"/>
<path d="M1051.99 86.7559V175.337" stroke="black" stroke-width="3" stroke-miterlimit="10"/>
<path d="M1342.94 22.959H1064.72V175.336" stroke="black" stroke-width="3" stroke-miterlimit="10"/>
<path d="M1069.94 116.564C1069.94 116.564 1070.36 125.815 1112.47 123.269C1154.58 120.723 1161.07 113.928 1161.07 113.928C1161.07 113.928 1164.75 120.723 1175.77 121.004C1186.79 121.284 1300.12 121.004 1300.12 121.004C1300.12 121.004 1310.01 124.151 1320.47 123.71C1330.93 123.269 1338 119.2 1338 119.2" stroke="black" stroke-width="3" stroke-miterlimit="10"/>
<path d="M1245.65 83.3683C1245.65 83.3683 1267.06 83.1578 1277.02 79.5496C1286.98 75.9414 1298.64 72.9746 1298.64 72.9746" stroke="black" stroke-width="3" stroke-miterlimit="10"/>
<path d="M1279.78 86.7544C1279.78 86.7544 1295.26 82.7252 1305.64 81.8733C1316.03 81.0214 1322.34 81.1316 1322.34 81.1316" stroke="black" stroke-width="3" stroke-miterlimit="10"/>
<path d="M1359.18 4.54688L1356.18 698.035" stroke="black" stroke-width="3" stroke-miterlimit="10"/>
<path d="M1240.14 222.383C1240.14 222.383 1294.19 222.172 1298.01 222.383C1301.82 222.593 1309.24 228.747 1318.57 228.116C1327.89 227.484 1337 223.235 1337 223.235" stroke="black" stroke-width="3" stroke-miterlimit="10"/>
<path d="M1240.15 324.265C1240.15 324.265 1298.51 320.096 1305.96 320.015C1316.77 319.905 1318.36 321.429 1323.44 321.148C1328.53 320.867 1337.01 314.924 1337.01 314.924" stroke="black" stroke-width="3" stroke-miterlimit="10"/>
<path d="M1240.14 426.358C1240.14 426.358 1288.47 424.443 1298.44 426.358C1308.4 428.272 1309.89 429.756 1318.79 429.325C1327.68 428.904 1338.49 425.506 1338.49 425.506" stroke="black" stroke-width="3" stroke-miterlimit="10"/>
<path d="M1240.15 526.955C1240.15 526.955 1293.35 521.432 1302.89 522.494C1312.42 523.557 1316.45 525.331 1322.59 524.659C1328.74 523.988 1338.49 515.709 1338.49 515.709" stroke="black" stroke-width="3" stroke-miterlimit="10"/>
<path d="M1241.07 154.68L1244.88 178.454" stroke="black" stroke-width="3" stroke-miterlimit="10"/>
<path d="M1250.96 157.936L1252.93 173.782" stroke="black" stroke-width="3" stroke-miterlimit="10"/>
<path d="M1251.95 260.801V275.514" stroke="black" stroke-width="3" stroke-miterlimit="10"/>
<path d="M1241.07 258.676L1244.88 279.904" stroke="black" stroke-width="3" stroke-miterlimit="10"/>
<path d="M1240.15 462.65L1244.59 483.237" stroke="black" stroke-width="3" stroke-miterlimit="10"/>
<path d="M1250.75 463.713L1253.08 478.356" stroke="black" stroke-width="3" stroke-miterlimit="10"/>
<path d="M1372.14 8.64648C1372.14 8.64648 1368.81 20.8142 1369.94 28.4516C1371.07 36.0889 1372.14 39.7673 1372.14 39.7673" stroke="black" stroke-width="3" stroke-miterlimit="10"/>
<path d="M1375.16 78.166L1374.95 90.1533" stroke="black" stroke-width="3" stroke-miterlimit="10"/>
<path d="M1370.91 54.2812C1370.91 54.2812 1368.16 62.7706 1367.74 69.7765C1367.32 76.7825 1367.74 85.0613 1367.74 85.0613" stroke="black" stroke-width="3" stroke-miterlimit="10"/>
<path d="M1366.05 149.799C1366.05 149.799 1368.85 164.021 1372.14 171.027L1375.43 178.033" stroke="black" stroke-width="3" stroke-miterlimit="10"/>
<path d="M1367.74 252.311C1367.74 252.311 1367.79 265.26 1370.73 272.266C1373.68 279.272 1375.42 281.818 1375.42 281.818" stroke="black" stroke-width="3" stroke-miterlimit="10"/>
<path d="M1367.1 454.371C1367.1 454.371 1365.19 465.837 1369.43 474.327C1373.68 482.816 1375.42 484.73 1375.42 484.73" stroke="black" stroke-width="3" stroke-miterlimit="10"/>
<path d="M478.148 708.641C478.148 708.641 484.795 720.107 553.177 721.801C621.569 723.494 660.115 721.159 673.997 719.676C687.88 718.192 704.305 714.374 712.362 716.068C720.42 717.761 721.481 719.676 727.626 718.613C733.772 717.551 742.78 708.641 742.78 708.641" stroke="black" stroke-width="3" stroke-miterlimit="10"/>
<path d="M460.773 708.641V931.508" stroke="black" stroke-width="3" stroke-miterlimit="10"/>
<path d="M472.645 708.641V930.235" stroke="black" stroke-width="3" stroke-miterlimit="10"/>
<path d="M751 708.641V931.508" stroke="black" stroke-width="3" stroke-miterlimit="10"/>
<path d="M762.871 708.641V930.235" stroke="black" stroke-width="3" stroke-miterlimit="10"/>
<path d="M489.18 729.866C489.18 729.866 481.553 728.172 481.973 743.447C482.393 758.732 481.953 768.063 481.953 768.063" stroke="black" stroke-width="3" stroke-miterlimit="10"/>
<path d="M492.562 736.232C492.562 736.232 489.809 738.147 490.019 741.535C490.229 744.922 490.009 747.268 490.009 747.268" stroke="black" stroke-width="3" stroke-miterlimit="10"/>
<path d="M521.391 772.314C521.391 772.314 530.509 781.656 538.346 787.81C546.183 793.964 553.4 796.299 553.4 796.299" stroke="black" stroke-width="3" stroke-miterlimit="10"/>
<path d="M527.758 789.514C527.758 789.514 543.442 809.89 570.146 812.646C596.851 815.403 618.901 809.68 618.901 809.68" stroke="black" stroke-width="3" stroke-miterlimit="10"/>
<path d="M722.543 791.85C722.543 791.85 715.546 800.128 710.882 804.368C706.218 808.608 696.469 814.772 696.469 814.772" stroke="black" stroke-width="3" stroke-miterlimit="10"/>
<path d="M733.772 788.24L723.812 801.45" stroke="black" stroke-width="3" stroke-miterlimit="10"/>
<path d="M742.781 806.701V821.986" stroke="black" stroke-width="3" stroke-miterlimit="10"/>
<path d="M790.578 776.986C790.578 776.986 790.368 795.669 804.141 803.306C817.913 810.944 826.611 811.796 826.611 811.796" stroke="black" stroke-width="3" stroke-miterlimit="10"/>
<path d="M815.586 799.486C815.586 799.486 823.853 802.884 834.663 804.367C845.473 805.851 848.016 805.64 848.016 805.64" stroke="black" stroke-width="3" stroke-miterlimit="10"/>
<path d="M854.383 745.783H874.942" stroke="black" stroke-width="3" stroke-miterlimit="10"/>
<path d="M771.078 828.141C771.078 828.141 771.498 832.17 774.681 832.601C777.864 833.022 855.645 834.084 855.645 834.084" stroke="black" stroke-width="3" stroke-miterlimit="10"/>
<path d="M478.152 831.108C478.152 831.108 480.274 838.966 495.959 838.966C511.643 838.966 573.109 834.296 596 834.085C618.891 833.875 732.645 834.867 737.309 834.085C741.973 833.303 742.784 829.625 742.784 829.625" stroke="black" stroke-width="3" stroke-miterlimit="10"/>
<path d="M527.328 890.041L535.386 899.242" stroke="black" stroke-width="3" stroke-miterlimit="10"/>
<path d="M521.391 896.557L539.057 920.471" stroke="black" stroke-width="3" stroke-miterlimit="10"/>
<path d="M647.297 909.997C647.297 909.997 673.441 897.97 685.021 891.315C696.612 884.66 704.519 877.594 704.519 877.594" stroke="black" stroke-width="3" stroke-miterlimit="10"/>
<path d="M677.531 907.733L704.526 893.791" stroke="black" stroke-width="3" stroke-miterlimit="10"/>
<path d="M844.273 916.361L856.144 902.35" stroke="black" stroke-width="3" stroke-miterlimit="10"/>
<path d="M1107.25 98.7832C1107.25 98.7832 1121.87 101.83 1126.53 101.83H1131.2" stroke="black" stroke-width="3" stroke-miterlimit="10"/>
<path d="M1185.75 186.455H114.19C95.5446 186.455 80.4297 201.591 80.4297 220.261V658.048C80.4297 676.719 95.5446 691.854 114.19 691.854H1185.75C1204.39 691.854 1219.51 676.719 1219.51 658.048V220.261C1219.51 201.591 1204.39 186.455 1185.75 186.455Z" fill="#02304F" stroke="black" stroke-width="3" stroke-miterlimit="10"/>
</svg>
